<svg xmlns="http://www.w3.org/2000/svg" width="200" height="200" viewBox="0 0 200 200" preserveAspectRatio="xMidYMid meet"><path fill="#e5e5e5" d="M58 37L79 16L100 37L79 58ZM121 16L142 37L121 58L100 37ZM142 163L121 184L100 163L121 142ZM79 184L58 163L79 142L100 163ZM16 79L37 58L58 79L37 100ZM163 58L184 79L163 100L142 79ZM184 121L163 142L142 121L163 100ZM37 142L16 121L37 100L58 121Z"/><path fill="#d17596" d="M58 16L58 58L16 58ZM184 58L142 58L142 16ZM142 184L142 142L184 142ZM16 142L58 142L58 184ZM58 58L100 58L100 100L58 100ZM72 95L95 95L95 72L72 72ZM142 58L142 100L100 100L100 58ZM105 72L105 95L128 95L128 72ZM142 142L100 142L100 100L142 100ZM128 105L105 105L105 128L128 128ZM58 142L58 100L100 100L100 142ZM95 128L95 105L72 105L72 128Z"/></svg>