<svg xmlns="http://www.w3.org/2000/svg" viewBox="0 0 35 35"><path d="M1 1h7v7h-7zM11 1h2v1h-2zM17 1h1v1h-1zM19 1h6v1h-2v1h1v1h-1v1h1v1h2v2h-1v-1h-1v1h1v1h1v1h-1v1h-1v-1h-1v-1h-2v1h1v2h-1v-1h-1v-2h-1v-2h1v1h1v-1h1v1h1v-1h-1v-1h-1v-1h1v-1h-1v1h-2v-1h1v-1h1v-1h-1v1h-1zM27 1h7v7h-7zM2 2v5h5v-5zM13 2h1v3h2v-1h-1v-1h1v-1h1v1h1v1h-1v1h1v1h-2v4h-1v1h2v-1h1v-1h1v3h2v1h-3v1h-1v-2h-2v1h-1v-1h-1v1h-1v-2h-1v1h-2v-2h2v-1h2v1h1v-1h1v-2h-1v2h-1v-2h-1v1h-1v-1h-1v1h1v1h-2v-6h1v1h1v1h-1v1h2v-1h1zM25 2h1v3h-2v-1h1zM28 2v5h5v-5zM3 3h3v3h-3zM29 3h3v3h-3zM18 6h1v1h-1zM20 6h1v1h-1zM17 7h1v2h-1zM1 9h1v1h1v-1h5v1h-1v1h-1v-1h-1v1h-1v1h-1v2h2v2h1v2h1v1h-2v-2h-2v1h1v3h-2v5h-1v-6h1v-4h1v-1h-2v-1h1v-2h-1zM27 9h5v2h1v2h1v2h-1v1h-1v1h-2v-3h-1v-3h1v1h1v-1h-1v-1h-2v1h-1zM33 10h1v1h-1zM7 11h1v1h-1zM23 11h1v1h-1zM26 11h1v1h-1zM6 12h1v1h4v2h-2v-1h-2v1h1v1h-2v-2h-1v-1h1zM24 12h2v1h1v1h-1v1h1v-1h1v2h-2v1h-2v-1h1v-3h-1zM15 13h1v1h-1zM21 13h3v1h-1v1h-1v-1h-1zM31 13v1h1v-1zM13 14h1v1h-1zM16 14h1v1h1v1h-1v2h-1v-2h-1v-1h1zM19 14h1v1h-1zM11 15h1v1h-1zM21 15h1v1h-1zM8 16h1v1h1v2h-2v-1h-1v-1h1zM13 16h2v1h-2zM19 16h1v2h1v-1h1v1h1v2h1v1h-1v1h-1v-1h-1v1h-2v-1h1v-1h1v-1h-1v1h-1v-2h-1v-1h1zM22 16h1v1h-1zM26 17h1v1h-1zM28 17h2v1h-1v1h-2v-1h1zM33 17h1v2h-1zM11 18h2v1h-1v1h1v1h-1v1h-1zM14 18h1v1h-1zM24 18h1v1h-1zM30 18h2v1h1v3h-1v-1h-1v2h-1v-1h-2v-1h1v-2h1v1h1v-1h-1zM7 19h1v1h-1zM15 19h3v2h-2v-1h-1zM26 19h1v3h1v1h-1v2h2v-2h1v1h2v-1h1v1h1v3h-1v1h1v1h-3v-3h2v-1h-2v1h-1v3h1v1h1v3h-1v-2h-2v1h1v2h-3v-1h1v-1h-1v-1h1v-1h-1v1h-1v-1h-1v-1h-1v-1h-1v-1h2v-2h-1v-1h1v-1h-1v1h-1v-2h1v-1h1v1h1v-1h-1v-1h1zM5 20h1v1h2v1h-2v2h-1v-2h-1v-1h1zM14 20h1v1h-1zM9 21h1v2h-1zM13 21h1v1h-1zM15 21h1v1h3v2h-1v-1h-3v4h-1v-1h-1v-1h1v-3h1zM3 22h1v2h1v1h1v1h-3zM21 22h1v1h-1zM33 22h1v1h-1zM7 23h1v1h-1zM10 23h2v1h-2zM20 23h1v1h2v1h-2v1h1v1h-3v1h2v1h-3v1h-1v-2h-1v-1h1v-1h1v-1h1v1h1v-1h-1v-1h1zM6 24h1v1h-1zM12 24h1v1h-1zM17 24h1v1h-1zM7 25h2v1h-2zM11 25h1v1h-1zM23 25h1v1h-1zM9 26h2v1h-2zM12 26h1v1h1v1h-2zM26 26v3h3v-3zM1 27h7v7h-7zM27 27h1v1h-1zM2 28v5h5v-5zM9 28h1v1h1v1h-1v1h1v1h1v1h-1v1h-2v-1h1v-1h-1zM11 28h1v1h-1zM14 28h2v2h1v1h2v-1h1v2h-3v2h-1v-3h-1v-2h-1zM3 29h3v3h-3zM12 29h2v2h-1v1h-1v-1h-1v-1h1zM21 29h3v1h-3zM24 30h1v1h1v1h-1v1h1v1h-3v-1h-1v-1h-1v-1h2v1h1zM33 30h1v1h-1zM14 31h1v1h-1zM13 32h1v2h-2v-1h1zM18 33h1v1h-1zM21 33h1v1h-1zM32 33h1v1h-1z"/></svg>