<svg xmlns="http://www.w3.org/2000/svg" viewBox="0 0 31 31"><path d="M1 1h7v7h-7zM10 1h2v3h3v2h-1v-1h-1v1h-1v-1h-1v-3h-1zM13 1h1v1h-1zM15 1h1v1h-1zM18 1h3v1h-2v1h-1v1h-1v-1h-1v-1h2zM23 1h7v7h-7zM2 2v5h5v-5zM24 2v5h5v-5zM3 3h3v3h-3zM9 3h1v2h1v1h-1v3h-1zM19 3h1v1h-1zM21 3h1v5h-1v-2h-1v2h-1v-1h-1v-1h1v-1h2zM25 3h3v3h-3zM18 4h1v1h-1zM11 6h1v2h1v1h-1v1h-1zM15 6h2v1h-1v1h1v-1h1v2h1v1h1v-1h1v1h2v-1h5v1h-2v2h-1v-1h-1v1h-1v1h-2v-2h-2v1h-1v-1h-1v-1h-1v-1h-1zM13 7h1v1h-1zM1 9h1v1h1v-1h5v1h-1v1h2v-1h1v1h2v1h1v-1h-1v-1h1v-1h2v1h-1v1h1v1h-1v1h-1v1h-1v-1h-1v-1h-2v1h2v1h-2v1h-1v-1h-1v-1h1v-1h-2v-1h-2v1h2v1h-2v1h-3v-1h2v-2h-2zM15 10h1v1h-1zM29 10h1v1h-1zM16 11h1v1h-1zM17 12h1v1h-1zM24 12h1v1h-1zM28 12h1v1h-1zM14 13h1v2h-1zM18 13h1v1h1v-1h1v1h1v3h-1v-2h-3v2h-1v1h-1v1h-1v-1h-1v-1h1v-2h2v-1h1zM26 13h2v3h-1v-2h-1zM5 14h1v1h-1zM11 14h1v1h-1zM23 14h3v3h-1v-1h-1v-1h-1zM29 14h1v1h-1zM2 15h3v1h-1v1h-2zM6 15h2v1h-2zM9 15h1v1h-1zM12 15h1v1h-1zM5 16h1v1h3v1h-3v1h-1v-1h-1v-1h1zM11 16h1v2h1v1h1v2h2v1h-1v1h2v-1h1v3h1v1h1v1h-1v1h-4v1h-3v-1h-1v-1h2v-1h2v1h2v-1h-1v-1h-1v-1h-1v1h-1v1h-2v-1h1v-1h1v-1h1v-1h-3v2h-1v-1h-1v-2h1v-1h2v-1h-2v-1h1zM28 16h1v1h-1zM1 17h1v1h1v1h-1v3h-1zM18 17h3v1h6v-1h1v3h-2v-1h-1v1h1v2h1v-1h1v-1h1v1h1v2h-2v1h-1v1h-1v1h-3v1h3v1h1v1h-1v1h-4v-1h1v-1h-1v-1h-1v-2h-2v-1h1v-1h1v-1h-1v-1h2v-1h-1v-1h-2v1h-1v1h-2v-2h1v-1h1zM29 18h1v1h-1zM3 19h1v1h-1zM7 19h1v1h-1zM23 19v1h1v-1zM4 20h1v1h-1zM3 21h1v1h-1zM7 21h1v1h-1zM18 21h1v1h-1zM19 22h1v1h-1zM22 22v3h3v-3zM1 23h7v7h-7zM23 23h1v1h-1zM2 24v5h5v-5zM9 24h1v4h-1zM28 24h2v3h-1v2h-1v-2h-2v-1h1v-1h1zM3 25h3v3h-3zM20 27h1v1h1v1h-1v1h-1zM9 29h1v1h-1zM15 29h2v1h-2zM18 29h1v1h-1zM27 29h1v1h-1z"/></svg>