<svg xmlns="http://www.w3.org/2000/svg" viewBox="0 0 31 31"><path d="M1 1h7v7h-7zM10 1h1v1h-1zM12 1h1v2h1v1h1v1h-2v-1h-1zM15 1h1v1h-1zM18 1h3v1h-2v1h-1v1h-1v-1h-1v-1h2zM23 1h7v7h-7zM2 2v5h5v-5zM24 2v5h5v-5zM3 3h3v3h-3zM9 3h2v1h1v1h1v2h-1v-1h-1v-1h-1v1h1v1h-1v2h-1zM19 3h1v1h-1zM21 3h1v5h-1v-2h-1v2h-1v-1h-1v-1h1v-1h2zM25 3h3v3h-3zM18 4h1v1h-1zM15 5h1v1h-1zM16 6h1v1h-1zM11 7h1v1h-1zM13 7h1v1h-1zM15 7h1v1h-1zM17 7h1v2h1v1h1v-1h1v1h2v-1h5v1h-2v2h-1v-1h-1v1h-1v1h-2v-2h-2v1h-1v-1h-1v-1h-1v-2h1zM1 9h1v3h-1zM3 9h5v1h-1v1h1v1h-1v1h-1v-3h-1v2h-1v-2h-1zM10 9h3v1h-2v1h-1v1h-1v-2h1zM14 9h1v1h-1zM13 10h1v1h-1zM15 10h1v1h-1zM29 10h1v1h-1zM11 11h2v2h1v1h-2v-2h-1zM16 11h1v1h-1zM8 12h1v1h-1zM10 12h1v2h-1zM17 12h1v1h-1zM24 12h1v1h-1zM28 12h1v1h-1zM1 13h2v2h3v2h-1v1h-1v1h-2v3h-1v-7h1v-1h-1zM4 13h2v1h-2zM7 13h1v1h-1zM15 13h1v1h-1zM18 13h1v1h1v-1h1v1h1v3h-1v-2h-3v2h-1v1h-1v-1h-1v-1h1v-1h1v-1h1zM26 13h2v3h-1v-2h-1zM6 14h1v1h-1zM8 14h2v1h-1v2h-1v-1h-1v-1h1zM11 14h1v3h-2v-1h1zM14 14h1v1h-1zM23 14h3v3h-1v-1h-1v-1h-1zM29 14h1v1h-1zM2 16v1h1v-1zM13 16h1v1h-1zM28 16h1v1h-1zM6 17h2v1h-2zM12 17h1v1h-1zM14 17h1v2h-1zM18 17h3v1h6v-1h1v3h-2v-1h-1v1h1v2h1v-1h1v-1h1v1h1v2h-2v1h-1v1h-1v1h-3v1h3v1h1v1h-1v1h-4v-1h1v-1h-1v-1h-1v-2h-2v-1h1v-1h1v-1h-1v-1h2v-1h-1v-1h-2v1h-1v1h-3v-2h2v-1h1zM5 18h1v2h-1zM10 18h2v1h-1v1h1v1h-2zM29 18h1v1h-1zM7 19h2v2h1v1h1v2h-1v-1h-1v-1h-2v-1h1v-1h-1zM12 19h1v1h-1zM23 19v1h1v-1zM4 20h1v1h-1zM3 21h1v1h-1zM12 21h1v1h-1zM14 21h1v1h-1zM18 21h1v1h-1zM13 22h1v3h-1v3h-2v1h1v1h-3v-1h1v-1h-1v-4h1v1h1v-1h2zM15 22h1v1h-1zM17 22h1v3h1v1h1v1h-1v1h-3v-1h1v-1h-1v-1h-1v-1h1v-1h1zM19 22h1v1h-1zM22 22v3h3v-3zM1 23h7v7h-7zM23 23h1v1h-1zM2 24v5h5v-5zM28 24h2v3h-1v2h-1v-2h-2v-1h1v-1h1zM3 25h3v3h-3zM10 26v1h2v-1zM20 27h1v1h1v1h-1v1h-1zM15 28h1v1h-1zM13 29h1v1h-1zM16 29h1v1h-1zM18 29h1v1h-1zM27 29h1v1h-1z"/></svg>