<svg xmlns="http://www.w3.org/2000/svg" viewBox="0 0 31 31"><path d="M1 1h7v7h-7zM9 1h2v1h-2zM14 1h1v1h-1zM17 1h1v1h1v-1h1v2h1v1h-1v2h-1v1h-1v-1h-1v-1h1v-2h-1zM21 1h1v1h-1zM23 1h7v7h-7zM2 2v5h5v-5zM12 2h1v1h-1zM24 2v5h5v-5zM3 3h3v3h-3zM9 3h3v1h-1v2h1v-1h1v1h1v-2h-1v-1h3v1h-1v2h1v2h-1v-1h-1v3h1v2h-1v-1h-1v1h-1v1h2v2h-1v-1h-2v-1h-1v-1h1v-2h-1v-1h1v-2h-1v1h-1v-2h1v-2h-1zM25 3h3v3h-3zM16 4h1v1h-1zM21 4h1v1h-1zM21 6h1v2h-1zM12 7v1h1v-1zM17 7h1v2h-1zM19 7h1v2h-1zM1 9h1v1h1v-1h1v1h1v1h3v1h-2v1h2v1h-3v1h-1v-4h-1v4h-2v-1h1v-3h-1zM7 9h2v2h-1v-1h-1zM15 9h2v1h2v1h-1v3h1v2h-1v-1h-1v1h-2v-4h1v-2h-1zM21 9h1v2h-1v1h-1v-2h1zM24 9h1v2h3v1h-2v1h-1v2h-1v1h-1v-1h-2v1h-1v-2h1v-2h1v2h1v-1h1v-2h-1v-1h1zM27 9h1v1h-1zM29 9h1v3h-1v-1h-1v-1h1zM9 11h1v1h-1zM22 11h1v1h-1zM19 12h1v1h-1zM9 13h1v5h-1v-1h-1v-1h-3v-1h4zM16 13v1h1v-1zM29 13h1v3h-1v-1h-2v-1h2zM12 15h1v1h1v1h-2zM25 15h2v1h-2zM1 16h3v2h3v1h-1v1h-1v1h-2v-1h-2v-1h2v-1h-1v-1h-1zM17 16h1v2h1v1h-2v1h-1v-1h-1v-2h2zM19 16h1v2h-1zM21 16h2v1h-1v2h-1v1h-1v-2h1zM7 17h1v1h-1zM11 17h1v1h1v2h-2zM23 17h2v2h-1v1h1v1h2v1h1v1h-2v1h1v2h1v1h1v-1h1v2h-3v2h-2v-1h1v-1h-1v-2h-3v1h1v1h2v1h-2v1h-2v-1h-2v-1h2v-2h-1v-2h1v-3h2v-1h-1v-1h1zM26 17h1v1h2v-1h1v3h-1v-1h-3zM7 19h1v1h-1zM6 20h1v1h2v1h-4v-1h1zM9 20h1v1h-1zM13 20h1v1h-1zM17 20h1v3h-1v1h-1v-2h1zM19 20h1v1h-1zM1 21h2v1h-2zM12 21h1v2h-1zM15 21h1v1h-1zM28 21h1v1h-1zM9 22h2v2h-2zM14 22h1v2h-1v1h-1v-2h1zM22 22v3h3v-3zM29 22h1v3h-1zM1 23h7v7h-7zM18 23h1v1h-1zM23 23h1v1h-1zM2 24v5h5v-5zM15 24h1v1h1v1h2v1h-2v2h1v1h-2v-1h-1v1h-1v-2h1v-1h1v-1h-2v-1h1zM17 24h1v1h-1zM3 25h3v3h-3zM11 25h2v2h1v1h-1v1h-1v-1h-1v-1h-1v-1h1zM28 25h1v1h-1zM9 27h1v1h-1zM10 28h1v1h-1zM9 29h1v1h-1zM11 29h1v1h-1zM29 29h1v1h-1z"/></svg>