<svg xmlns="http://www.w3.org/2000/svg" viewBox="0 0 31 31"><path d="M1 1h7v7h-7zM9 1h1v1h-1zM14 1h1v1h-1zM17 1h1v1h1v-1h1v2h1v1h-1v2h-1v1h-1v-1h-1v-1h1v-2h-1zM21 1h1v1h-1zM23 1h7v7h-7zM2 2v5h5v-5zM13 2h1v1h-1zM24 2v5h5v-5zM3 3h3v3h-3zM9 3h1v1h-1zM14 3h1v3h-1zM25 3h3v3h-3zM11 4h2v2h-1v2h-1zM16 4h1v1h-1zM21 4h1v1h-1zM9 6h1v2h-1zM13 6h1v3h-1v1h-1v-2h1zM15 6h1v2h-1zM21 6h1v2h-1zM17 7h1v2h-1zM19 7h1v2h-1zM1 9h1v1h-1zM3 9h1v1h-1zM7 9h2v1h-2zM10 9h1v1h-1zM16 9h1v1h2v1h-1v3h1v2h-1v-1h-1v1h-1v-1h-1v-3h1zM21 9h1v2h-1v1h-1v-2h1zM24 9h1v2h3v1h-2v1h-1v2h-1v1h-1v-1h-2v1h-1v-2h1v-2h1v2h1v-1h1v-2h-1v-1h1zM27 9h1v1h-1zM29 9h1v3h-1v-1h-1v-1h1zM5 10h2v1h-1v1h1v1h-1v1h-1v-2h-1v-1h1zM9 10h1v1h1v-1h1v1h1v1h-2v1h-2zM7 11h1v1h-1zM14 11h1v1h-1zM22 11h1v1h-1zM1 12h3v1h-2v1h-1zM13 12h1v1h-1zM19 12h1v1h-1zM7 13h2v1h-2zM12 13h1v3h-1v-1h-1v-1h1zM16 13v1h1v-1zM29 13h1v3h-1v-1h-2v-1h2zM1 15h3v3h-3v-1h1v-1h-1zM6 15h2v1h-1v1h-1v1h1v1h-1v2h3v-3h1v1h1v-1h1v1h1v2h-1v-1h-1v1h-1v2h1v1h-2v-2h-8v-1h2v-1h1v1h1v-2h-1v-1h1v-2h1zM14 15h1v1h-1zM25 15h2v1h-2zM8 16h2v1h-1v1h-2v-1h1zM13 16h1v1h-1zM15 16h1v1h1v-1h1v2h1v1h-2v1h-1v-2h-1zM19 16h1v2h-1zM21 16h2v1h-1v2h-1v1h-1v-2h1zM10 17h1v1h-1zM12 17h1v1h-1zM23 17h2v2h-1v1h1v1h2v1h1v1h-2v1h1v2h1v1h1v-1h1v2h-3v2h-2v-1h1v-1h-1v-2h-3v1h1v1h2v1h-2v1h-2v-1h-2v-1h2v-2h-1v-2h1v-3h2v-1h-1v-1h1zM26 17h1v1h2v-1h1v3h-1v-1h-3zM13 18h2v2h-1v-1h-1zM1 19h2v1h-2zM7 19h1v1h-1zM15 20h1v1h-1zM17 20h1v3h-1v1h-1v-2h1zM19 20h1v1h-1zM11 21h1v2h-1zM13 21h2v1h-1v3h3v1h2v1h-2v2h1v1h-2v-1h-1v1h-2v-2h-1v-3h1v-1h-1v-1h1zM28 21h1v1h-1zM22 22v3h3v-3zM29 22h1v3h-1zM1 23h7v7h-7zM18 23h1v1h-1zM23 23h1v1h-1zM2 24v5h5v-5zM11 24h1v1h-1zM17 24h1v1h-1zM3 25h3v3h-3zM28 25h1v1h-1zM10 26h1v1h-1zM13 26v1h1v-1zM15 26v1h1v-1zM9 27h1v1h-1zM10 28h2v1h-1v1h-2v-1h1zM29 29h1v1h-1z"/></svg>