<svg xmlns="http://www.w3.org/2000/svg" viewBox="0 0 31 31"><path d="M1 1h7v7h-7zM11 1h1v1h-1zM16 1h6v1h-1v1h-1v1h2v1h-1v1h1v2h-1v-1h-1v-1h-1v-4h-1v1h-1v1h-1v1h2v1h-1v1h-1v-1h-1v-1h-2v-1h2v-1h1zM23 1h7v7h-7zM2 2v5h5v-5zM9 2h2v1h1v-1h1v2h-2v1h-1v-2h-1zM24 2v5h5v-5zM3 3h3v3h-3zM25 3h3v3h-3zM9 5h1v1h-1zM11 5h1v1h-1zM12 6h2v2h-1v-1h-1zM9 7h1v1h-1zM11 7h1v2h2v1h1v1h1v1h-1v1h-1v-2h-1v-1h-3v-1h1zM15 7h1v1h-1zM17 7h1v1h1v-1h1v1h1v1h1v1h2v1h-3v-1h-1v-1h-1v1h-1v-1h-2v-1h1zM14 8h1v1h-1zM1 9h1v1h1v-1h1v2h1v-2h1v3h-1v1h-1v-1h-1v3h-1v2h-1v-3h1v-1h-1v-1h1v-1h-1zM7 9h1v1h-1zM25 9h1v1h-1zM28 9h1v1h-1zM17 10h1v1h1v1h4v1h1v2h2v1h-1v1h-1v-1h-2v-1h1v-1h-1v1h-1v-1h-1v-1h-1v1h-1v1h-1v-1h-1v-1h1zM26 10h1v1h-1zM29 10h1v2h-1v1h1v3h-1v1h1v3h-1v1h-1v-2h1v-1h-1v-3h1v-1h-1v-2h-1v-1h2zM7 11h2v1h-2zM10 11h3v2h-2v1h-1v-1h-1v-1h1zM25 11h1v1h1v2h1v1h-2v-2h-1zM6 12h1v1h2v1h-3zM13 13h1v1h-1zM9 14h1v2h1v2h-1v-1h-1zM11 14h1v2h-1zM14 14h1v1h1v1h-1v1h1v3h-1v-1h-1v1h-2v-4h2zM4 15h4v1h-1v1h2v1h1v1h-1v1h1v1h-2v-1h-1v-1h1v-1h-1v1h-1v-2h-1v-1h-1zM3 16h1v1h1v2h1v1h1v1h1v1h-5v-1h1v-1h-1v-2h-1v-1h1zM16 16h6v1h2v2h1v1h-1v1h2v2h1v1h-1v4h-2v-2h-1v1h-1v3h-2v-1h1v-1h-1v-2h1v-2h-1v-3h-1v2h-2v-1h-1v-2h2v-1h1v1h2v1h1v-1h1v-1h-2v-1h-3v1h-1v-2h-1zM26 16h1v1h-1zM27 18h1v1h-1zM1 19h1v1h-1zM10 19h1v1h-1zM26 19h1v2h-1zM2 20h1v1h-1zM11 20h1v1h-1zM14 20h1v2h-1zM1 21h1v1h-1zM9 22h2v2h-1v-1h-1zM22 22v3h3v-3zM27 22h3v3h-2v-2h-1zM1 23h7v7h-7zM12 23h2v1h-1v1h1v1h-2v1h-2v-1h-1v-1h2v-1h1zM15 23h1v1h3v2h-1v-1h-2v1h-1v-1h-1v-1h1zM23 23h1v1h-1zM2 24v5h5v-5zM3 25h3v3h-3zM14 26h1v1h1v3h-1v-1h-1v-1h-1v2h-1v-1h-1v-1h1v-1h2zM17 26h1v1h-1zM27 26h3v2h-1v-1h-1v1h-1zM9 27h1v1h-1zM18 27h1v1h1v1h-1v1h-2v-1h1zM23 28h1v1h-1zM28 28h1v1h1v1h-2zM9 29h1v1h-1zM24 29h2v1h-2z"/></svg>