<svg xmlns="http://www.w3.org/2000/svg" viewBox="0 0 35 35"><path d="M1 1h7v7h-7zM10 1h5v1h2v-1h2v2h1v1h-2v-1h-1v1h-1v-1h-1v1h-4v1h-1v4h-1v-6h3v-1h-2zM20 1h1v1h-1zM24 1h1v1h-1zM27 1h7v7h-7zM2 2v5h5v-5zM13 2v1h1v-1zM21 2h1v2h4v2h-1v-1h-4zM23 2h1v1h-1zM28 2v5h5v-5zM3 3h3v3h-3zM29 3h3v3h-3zM15 4h1v1h-1zM17 4h1v1h-1zM12 5h2v3h-1v-2h-1zM16 5h1v1h2v1h-1v1h-1v-1h-1zM19 5h1v1h-1zM21 6h2v1h-1v1h-1zM11 7h1v3h-1v1h1v-1h1v-1h2v1h-1v4h2v-1h1v1h1v1h-2v3h-4v1h1v2h-1v-1h-1v-1h-1v-1h1v-1h3v-2h-1v1h-1v-1h-1v2h-1v-2h-1v2h1v1h-1v1h-1v-1h-1v-1h1v-1h-1v-1h1v-1h5v-1h-2v-1h-1v-3h1zM15 7h1v1h1v1h2v1h-3v-1h-1zM19 7h1v1h-1zM23 7h1v1h1v-1h1v3h-1v-1h-1v1h1v1h-2v1h1v1h-1v1h1v-1h1v1h4v3h-2v-1h1v-1h-4v1h-1v1h-2v2h-1v-1h-1v2h1v1h-2v-3h-1v-2h1v1h2v-1h-2v-1h3v1h1v-1h-1v-1h1v-1h-1v1h-2v-1h1v-1h1v-1h1v-1h1v-1h-1v-1h1zM1 9h1v2h-1zM3 9h5v1h-2v2h-2v3h1v-1h1v3h-1v-1h-2v1h-2v-2h1v-1h1v-1h-1v-1h1v-1h1v-1h-1zM21 9h1v1h-1zM27 9h5v1h2v1h-2v1h2v1h-4v-3h-2v1h-1zM15 10h1v1h-1zM19 10h2v1h-1v1h-1zM7 11h2v1h1v1h-2v-1h-1zM16 11h2v2h-1v-1h-1zM26 11h1v1h-1zM6 12h1v1h-1zM15 12h1v1h-1zM27 12h1v1h-1zM1 13h1v1h-1zM7 13h1v1h-1zM29 13h1v1h-1zM31 14h1v1h1v1h-1v1h-1zM33 14h1v1h-1zM25 16h1v2h-1zM29 17h2v1h1v1h-1v1h1v-1h1v2h-3v1h-1v-1h-4v-1h3v-1h1v1h1v-2h-1zM32 17h2v2h-1v-1h-1zM1 18h1v1h1v-1h2v1h1v1h-1v1h-2v1h-1v4h-1v-5h1v-1h-1zM6 18h1v1h-1zM24 18h1v1h-1zM27 18h1v1h-1zM7 19h1v1h-1zM15 19h2v2h1v1h-1v1h1v1h-1v1h2v1h-3v-1h-2v2h-1v1h-2v-1h1v-2h1v-1h-1v-1h-1v-2h1v1h2v-1h1v1h1v-2h-1zM21 19h1v2h3v1h4v2h3v1h-2v2h1v-1h1v-1h2v2h-2v2h-2v1h2v3h-1v-2h-3v-1h-1v1h1v1h-4v-1h2v-1h-1v-1h-2v1h1v1h-3v-1h1v-1h-1v1h-2v-1h1v-1h1v-1h-1v1h-1v-2h4v2h1v-1h1v-2h2v-1h-2v-1h-1v-1h-4v-1h1zM23 19h1v1h-1zM6 20h1v1h1v-1h3v1h-1v2h-1v-1h-3zM18 22h2v3h-1v-2h-1zM31 22h1v1h-1zM33 22h1v1h-1zM3 23h1v1h-1zM6 23h3v1h-2v1h1v1h-5v-1h2v-1h1zM15 23v1h1v-1zM21 23h1v1h-1zM23 23h1v1h-1zM32 23h1v1h-1zM10 24h1v2h-1v1h-1v-2h1zM22 24h1v1h-1zM23 25h1v1h-1zM15 26h1v1h-1zM26 26v3h3v-3zM1 27h7v7h-7zM14 27h1v1h-1zM16 27h2v2h-1v1h1v1h-2v3h-3v-1h2v-2h-2v-1h1v-1h1v-1h1zM27 27h1v1h-1zM2 28v5h5v-5zM9 28h2v3h-1v1h-1zM13 28h1v1h-1zM33 28h1v1h-1zM3 29h3v3h-3zM33 30h1v1h-1zM11 31h1v2h-1v1h-2v-1h1v-1h1zM20 31h1v1h3v1h2v1h-3v-1h-2v1h-4v-2h1v1h2zM28 32h1v1h-1zM27 33h1v1h-1zM29 33h2v1h-2zM32 33h1v1h-1z"/></svg>