<svg xmlns="http://www.w3.org/2000/svg" viewBox="0 0 35 35"><path d="M1 1h7v7h-7zM9 1h5v1h-2v1h-1v-1h-1v2h-1zM15 1h1v1h-1zM21 1h1v1h-1zM23 1h1v3h-1v-1h-1v-1h1zM27 1h7v7h-7zM2 2v5h5v-5zM17 2h2v1h1v-1h1v1h1v1h-6v-1h1zM28 2v5h5v-5zM3 3h3v3h-3zM13 3h1v3h-1v-1h-2v-1h2zM29 3h3v3h-3zM24 4h2v5h1v1h-2v3h-1v-4h1v-2h-1v2h-1v-3h1zM9 5h1v1h-1zM15 5h2v1h-2zM18 5h2v1h-2zM21 5h1v6h-2v1h-1v1h1v1h-2v1h2v1h-3v-4h-1v2h-1v1h1v1h1v1h-1v1h1v-1h1v2h-1v1h-1v-1h-1v1h1v1h-2v-1h-1v-1h1v-1h1v-2h-1v1h-2v-1h-1v1h-1v-2h1v-1h2v1h1v-1h-1v-3h1v2h1v-2h1v-2h1v1h1v1h1v-1h1v-2h1zM10 6h2v3h-1v5h-1v-1h-2v-1h2v-1h-2v-1h-3v1h-1v1h-1v1h-1v2h-1v-4h2v-1h1v-1h6v-1h1v-1h-1zM14 6h1v1h-1zM9 7h1v1h-1zM13 7h1v1h-1zM15 7h1v1h-1zM17 7h1v1h-1zM19 7h1v1h-1zM14 8h1v1h-1zM1 9h1v1h-1zM18 9h1v1h-1zM29 9h1v1h1v-1h3v1h-2v1h2v1h-2v1h-1v-2h-3v-1h1zM12 10h1v1h-1zM7 11h1v1h-1zM22 11h1v1h-1zM26 11h2v1h-2zM5 12h1v1h-1zM20 12h2v1h2v1h2v1h-3v-1h-2v-1h-1zM28 12h2v1h-2zM4 13h1v1h-1zM7 13h1v1h-1zM26 13h2v1h-2zM30 13h1v1h2v1h-3zM33 13h1v1h-1zM3 14h1v2h-1v2h-1v-1h-1v-1h1v-1h1zM6 14h1v1h-1zM20 14h1v1h-1zM5 15h1v1h1v1h-1v2h2v1h-1v1h1v-1h1v1h2v1h1v1h1v1h1v1h1v1h-1v1h1v1h1v-1h-1v-1h1v-1h1v3h1v1h-1v1h-1v2h-4v-1h-1v-1h1v-4h-2v5h-1v-7h1v1h2v-1h-2v-1h-1v-1h-3v-1h-1v-2h-1v-1h1v-1h-1v-1h1zM7 15h2v2h-1v-1h-1zM22 15h1v1h-1zM26 15h1v1h-1zM28 15h2v1h-2zM20 16h1v1h1v1h-1v3h-4v-1h3v-1h-1v-1h1zM23 16h1v1h-1zM25 16h1v2h-2v-1h1zM31 16h1v1h-1zM33 16h1v1h-1zM7 17h1v1h-1zM9 17h1v1h-1zM11 17h1v1h-1zM27 17h1v1h1v-1h1v3h2v1h-3v-1h-3v-1h1zM32 17h1v1h1v3h-1v-1h-1v-1h-1v-1h1zM1 18h1v3h-1zM8 18h1v1h-1zM22 18h2v1h-2zM3 19h1v1h-1zM9 19h2v1h-2zM24 19h1v1h-1zM11 20h2v2h-1v-1h-1zM22 20h1v2h1v-1h1v-1h1v1h1v3h-3v1h-1v-2h-2v-2h1zM2 21h3v2h-1v-1h-2zM16 21h1v1h-1zM1 22h1v3h2v-1h1v1h1v1h-5zM14 22h2v1h-2zM17 22h1v2h2v1h2v1h-3v-1h-2v-1h-1v-1h1zM19 22h1v1h-1zM25 22v1h1v-1zM29 22h3v1h2v1h-2v1h-2v2h1v-1h1v1h1v1h-1v1h-1v1h-4v1h-1v-1h-1v1h-1v-3h-3v1h2v1h-1v2h-1v-2h-2v1h-1v-2h2v-1h-1v-1h6v-1h-1v-1h3v-1h3v-1h-1zM3 23h1v1h-1zM6 23h2v1h-2zM15 24h1v1h-1zM7 25h1v1h-1zM26 26v3h3v-3zM1 27h7v7h-7zM27 27h1v1h-1zM2 28v5h5v-5zM13 28v1h1v1h-1v1h2v-2h-1v-1zM3 29h3v3h-3zM33 29h1v4h-3v-1h1v-1h1zM31 30h1v1h-1zM17 31h1v2h-2v-1h1zM19 31h1v3h-2v-1h1zM23 31h1v2h-1zM25 31h1v1h-1zM29 31h2v1h-2zM26 32h2v1h-1v1h-3v-1h2zM9 33h1v1h-1zM11 33h3v1h-3zM30 33h1v1h-1z"/></svg>