<svg xmlns="http://www.w3.org/2000/svg" viewBox="0 0 31 31"><path d="M1 1h7v7h-7zM9 1h1v1h-1zM11 1h1v2h1v3h1v-1h1v-1h2v1h-1v1h-1v1h-1v1h-1v-1h-1v-2h-2v-1h1zM14 1h2v1h-2zM19 1h1v2h1v1h-1v2h-1v1h-1v-1h-1v-1h1v-2h-1v-1h2zM21 1h1v1h-1zM23 1h7v7h-7zM2 2v5h5v-5zM13 2h1v1h-1zM24 2v5h5v-5zM3 3h3v3h-3zM9 3h1v1h-1zM14 3h1v1h-1zM25 3h3v3h-3zM21 4h1v1h-1zM9 6h1v2h-1zM21 6h1v2h-1zM11 7h1v2h2v2h-1v1h-1v1h-1v1h2v-1h1v1h1v1h1v-1h1v-1h-2v-2h1v-2h1v1h2v1h-1v3h1v2h-1v-1h-1v1h-3v-1h-1v1h-1v-1h-1v1h-2v-1h1v-1h-3v-1h1v-1h-1v-1h2v2h1v-1h1v-1h1v-1h-2v-1h1zM15 7h1v2h-1zM17 7h1v2h-1zM19 7h1v2h-1zM1 9h1v2h1v-2h1v2h1v1h-3v1h-1zM7 9h2v1h-2zM21 9h1v2h-1v1h-1v-2h1zM24 9h1v2h3v1h-2v1h-1v2h-1v1h-1v-1h-2v1h-1v-2h1v-2h1v2h1v-1h1v-2h-1v-1h1zM27 9h1v1h-1zM29 9h1v3h-1v-1h-1v-1h1zM5 10h1v1h-1zM22 11h1v1h-1zM6 12h1v1h-1zM19 12h1v1h-1zM4 13h2v1h-2zM29 13h1v3h-1v-1h-2v-1h2zM2 14h1v1h3v1h1v1h3v1h1v1h-3v-1h-3v-2h-2v3h1v-1h1v1h3v1h-1v1h-1v-1h-1v2h-1v-2h-3v-1h1v-3h-1v-1h1zM7 15h1v1h-1zM25 15h2v1h-2zM11 16h1v1h-1zM13 16h1v1h1v1h-2zM17 16h1v2h1v1h-2v1h-1v1h-1v-2h1v-2h1zM19 16h1v2h-1zM21 16h2v1h-1v2h-1v1h-1v-2h1zM23 17h2v2h-1v1h1v1h2v1h1v1h-2v1h1v2h1v1h1v-1h1v2h-3v2h-2v-1h1v-1h-1v-2h-3v1h1v1h2v1h-2v1h-2v-1h-2v-1h2v-2h-1v-2h1v-3h2v-1h-1v-1h1zM26 17h1v1h2v-1h1v3h-1v-1h-3zM12 18h1v2h1v2h-1v-1h-1zM8 20h1v1h2v1h2v1h1v1h-1v1h2v-1h1v1h1v1h2v1h-2v2h1v1h-5v-1h3v-3h-2v1h-1v-1h-1v-2h-1v2h-1v-2h-1v-2h-2v-1h1zM17 20h1v3h-1v1h-1v-2h1zM19 20h1v1h-1zM1 21h2v1h-2zM28 21h1v1h-1zM14 22h1v1h-1zM22 22v3h3v-3zM29 22h1v3h-1zM1 23h7v7h-7zM18 23h1v1h-1zM23 23h1v1h-1zM2 24v5h5v-5zM17 24h1v1h-1zM3 25h3v3h-3zM28 25h1v1h-1zM11 26h1v2h-1v1h-1v-1h-1v-1h2zM14 27h1v1h-1zM12 28h1v1h-1zM9 29h1v1h-1zM11 29h1v1h-1zM29 29h1v1h-1z"/></svg>