<svg xmlns="http://www.w3.org/2000/svg" viewBox="0 0 35 35"><path d="M1 1h7v7h-7zM10 1h3v1h-3zM17 1h1v1h-1zM19 1h6v1h-2v1h1v1h-1v1h1v1h2v2h-1v-1h-1v1h1v1h1v1h-1v1h-1v-1h-1v-1h-2v1h1v2h-1v-1h-1v-2h-1v-2h1v1h1v-1h1v1h1v-1h-1v-1h-1v-1h1v-1h-1v1h-2v-1h1v-1h1v-1h-1v1h-1zM27 1h7v7h-7zM2 2v5h5v-5zM13 2h1v2h-1zM16 2h1v1h1v1h-1v1h1v1h-2v4h-1v1h2v-1h1v-1h1v3h2v1h-3v1h-1v-2h-2v1h-1v-1h-1v1h-1v-1h-3v-2h1v1h1v-2h1v1h2v-1h1v-2h-1v-2h2v-1h-1v-1h1zM25 2h1v3h-2v-1h1zM28 2v5h5v-5zM3 3h3v3h-3zM9 3h3v2h-1v-1h-1v2h2v2h-1v-1h-1v1h1v1h-2zM29 3h3v3h-3zM12 5h1v1h-1zM18 6h1v1h-1zM20 6h1v1h-1zM13 7h1v2h-1zM17 7h1v2h-1zM1 9h1v1h1v-1h5v1h-1v1h-1v-1h-1v1h-1v1h-1v3h-2v-1h1v-1h-1zM27 9h5v2h1v2h1v2h-1v1h-1v1h-2v-1h-1v1h1v1h-1v1h-1v1h-2v-1h1v-1h1v-2h-2v1h-1v-4h-1v-1h2v1h1v1h-1v1h1v-1h1v1h2v-1h-2v-1h1v-2h1v1h1v-1h-1v-1h-2v2h-2v-1h1zM33 10h1v1h-1zM7 11h1v1h-1zM23 11h1v1h-1zM5 12h1v1h-1zM4 13h1v2h-1zM7 13h2v1h1v-1h1v2h-3v-1h-1zM15 13h1v1h-1zM21 13h3v1h-1v1h-1v-1h-1zM31 13v1h1v-1zM6 14h1v1h1v1h-2zM12 14h1v1h1v1h1v1h-2v2h-2v-1h1v-2h-1v-1h1zM16 14h1v1h1v1h-1v2h-1v-2h-1v-1h1zM19 14h1v1h-1zM3 15h1v1h2v2h-1v-1h-2v1h1v3h-3v-3h1v-2h1zM21 15h1v1h-1zM9 16h1v3h-2v-1h-1v-1h2zM19 16h1v2h1v-1h1v1h1v2h1v1h-1v1h-1v-1h-1v1h-2v-1h1v-1h1v-1h-1v1h-1v-2h-1v-1h1zM22 16h1v1h-1zM24 17h1v2h-1zM26 17h1v1h-1zM33 17h1v2h-1zM6 18h1v1h1v1h-2zM30 18h2v1h1v3h-1v-1h-1v2h-1v-2h-1v-2h1v1h1v-1h-1zM2 19v1h1v-1zM10 19h1v1h-1zM14 19h1v1h1v-1h2v2h-4zM11 20h2v1h-2zM25 20h1v1h-1zM4 21h1v1h1v2h-1v-1h-1v1h-1v-2h1zM6 21h2v1h-2zM9 21h2v1h-1v1h-1zM13 21h1v1h1v4h-2v1h1v1h-2v-2h-1v-1h2v-2h-1v1h-2v-1h1v-1h2zM24 21h1v1h1v1h1v2h2v-2h1v1h2v-1h1v1h1v3h-1v1h1v1h-3v-3h2v-1h-2v1h-1v3h1v1h1v3h-1v-2h-2v1h1v2h-2v-1h-1v-2h1v-1h-1v1h-1v-1h-1v-1h-1v-1h-1v-1h2v-1h-2v-1h3v-1h-1v-1h-1v1h-1v-2h1zM26 21h1v1h-1zM28 21h1v1h-1zM1 22h1v4h-1zM16 22h3v2h-1v-1h-2zM21 22h1v1h-1zM27 22h1v1h-1zM33 22h1v1h-1zM7 23h2v1h-2zM20 23h1v1h2v1h-2v1h1v1h-3v1h2v1h-3v1h-1v-2h-1v-1h1v-1h1v-1h1v1h1v-1h-1v-1h1zM6 24h1v1h-1zM17 24h1v1h-1zM4 25h2v1h-2zM7 25h1v1h-1zM9 26h2v1h-2zM26 26v3h3v-3zM1 27h7v7h-7zM27 27h1v1h-1zM2 28v5h5v-5zM9 28h1v1h1v-1h1v1h4v1h-6v1h1v1h1v-1h3v1h-1v2h-2v-1h-1v1h-2v-1h1v-1h-1zM3 29h3v3h-3zM21 29h3v1h-3zM16 30h1v1h2v-1h1v2h-3v2h-1zM24 30h1v1h1v1h-2zM33 30h1v1h-1zM21 31h2v1h1v1h3v1h-4v-1h-1v-1h-1zM18 33h1v1h-1zM21 33h1v1h-1zM32 33h1v1h-1z"/></svg>