<svg xmlns="http://www.w3.org/2000/svg" width="200" height="200" viewBox="0 0 200 200" preserveAspectRatio="xMidYMid meet"><path fill="#513db7" d="M65 37a14,14 0 1,1 28,0a14,14 0 1,1 -28,0M107 37a14,14 0 1,1 28,0a14,14 0 1,1 -28,0M107 163a14,14 0 1,1 28,0a14,14 0 1,1 -28,0M65 163a14,14 0 1,1 28,0a14,14 0 1,1 -28,0M23 79a14,14 0 1,1 28,0a14,14 0 1,1 -28,0M149 79a14,14 0 1,1 28,0a14,14 0 1,1 -28,0M149 121a14,14 0 1,1 28,0a14,14 0 1,1 -28,0M23 121a14,14 0 1,1 28,0a14,14 0 1,1 -28,0"/><path fill="#e5e5e5" d="M37 16L58 37L37 58L16 37ZM184 37L163 58L142 37L163 16ZM163 184L142 163L163 142L184 163ZM16 163L37 142L58 163L37 184Z"/><path fill="#9184d6" d="M58 58L100 58L100 100L58 100ZM73.12 84.04a10.92,10.92 0 1,0 21.84,0a10.92,10.92 0 1,0 -21.84,0M142 58L142 100L100 100L100 58ZM105.03999999999999 84.04a10.92,10.92 0 1,0 21.84,0a10.92,10.92 0 1,0 -21.84,0M142 142L100 142L100 100L142 100ZM105.03999999999999 115.96a10.92,10.92 0 1,0 21.84,0a10.92,10.92 0 1,0 -21.84,0M58 142L58 100L100 100L100 142ZM73.12 115.96a10.92,10.92 0 1,0 21.84,0a10.92,10.92 0 1,0 -21.84,0"/></svg>