<svg xmlns="http://www.w3.org/2000/svg" width="200" height="200" viewBox="0 0 200 200" preserveAspectRatio="xMidYMid meet"><path fill="#4c4c4c" d="M58 37L79 16L100 37L79 58ZM121 16L142 37L121 58L100 37ZM142 163L121 184L100 163L121 142ZM79 184L58 163L79 142L100 163ZM16 79L37 58L58 79L37 100ZM163 58L184 79L163 100L142 79ZM184 121L163 142L142 121L163 100ZM37 142L16 121L37 100L58 121Z"/><path fill="#84acd6" d="M23 37a14,14 0 1,1 28,0a14,14 0 1,1 -28,0M149 37a14,14 0 1,1 28,0a14,14 0 1,1 -28,0M149 163a14,14 0 1,1 28,0a14,14 0 1,1 -28,0M23 163a14,14 0 1,1 28,0a14,14 0 1,1 -28,0M100 79L100 100L79 100ZM121 100L100 100L100 79ZM100 121L100 100L121 100ZM79 100L100 100L100 121Z"/></svg>