<svg xmlns="http://www.w3.org/2000/svg" width="200" height="200" viewBox="0 0 200 200" preserveAspectRatio="xMidYMid meet"><path fill="#66cc66" d="M58 58L58 16L100 16ZM100 16L142 16L142 58ZM142 142L142 184L100 184ZM100 184L58 184L58 142ZM16 100L16 58L58 58ZM142 58L184 58L184 100ZM184 100L184 142L142 142ZM58 142L16 142L16 100ZM23 37a14,14 0 1,1 28,0a14,14 0 1,1 -28,0M149 37a14,14 0 1,1 28,0a14,14 0 1,1 -28,0M149 163a14,14 0 1,1 28,0a14,14 0 1,1 -28,0M23 163a14,14 0 1,1 28,0a14,14 0 1,1 -28,0"/><path fill="#4c4c4c" d="M100 79L100 100L79 100ZM121 100L100 100L100 79ZM100 121L100 100L121 100ZM79 100L100 100L100 121Z"/></svg>