<svg xmlns="http://www.w3.org/2000/svg" width="200" height="200" viewBox="0 0 200 200" preserveAspectRatio="xMidYMid meet"><path fill="#4c4c4c" d="M58 58L58 16L79 16ZM100 16L142 16L142 37ZM142 142L142 184L121 184ZM100 184L58 184L58 163ZM16 100L16 58L37 58ZM142 58L184 58L184 79ZM184 100L184 142L163 142ZM58 142L16 142L16 121Z"/><path fill="#848ad6" d="M58 58L16 58L16 37ZM142 58L142 16L163 16ZM142 142L184 142L184 163ZM58 142L58 184L37 184ZM58 58L100 58L100 87.4L74.8 74.8L87.4 100L58 100ZM142 58L142 100L112.6 100L125.2 74.8L100 87.4L100 58ZM142 142L100 142L100 112.6L125.2 125.2L112.6 100L142 100ZM58 142L58 100L87.4 100L74.8 125.2L100 112.6L100 142Z"/></svg>