<svg xmlns="http://www.w3.org/2000/svg" width="200" height="200" viewBox="0 0 200 200" preserveAspectRatio="xMidYMid meet"><path fill="#4c4c4c" d="M100 58L58 58L58 16ZM100 58L100 16L142 16ZM100 142L142 142L142 184ZM100 142L100 184L58 184ZM58 100L16 100L16 58ZM142 100L142 58L184 58ZM142 100L184 100L184 142ZM58 100L58 142L16 142Z"/><path fill="#dfe5b2" d="M58 58L16 58L16 37ZM142 58L142 16L163 16ZM142 142L184 142L184 163ZM58 142L58 184L37 184Z"/><path fill="#c0cc66" d="M58 58L100 58L100 87.4L74.8 74.8L87.4 100L58 100ZM142 58L142 100L112.6 100L125.2 74.8L100 87.4L100 58ZM142 142L100 142L100 112.6L125.2 125.2L112.6 100L142 100ZM58 142L58 100L87.4 100L74.8 125.2L100 112.6L100 142Z"/></svg>