<svg xmlns="http://www.w3.org/2000/svg" width="200" height="200" viewBox="0 0 200 200" preserveAspectRatio="xMidYMid meet"><path fill="#e5e5e5" d="M100 16L100 58L79 58ZM142 58L100 58L100 37ZM100 184L100 142L121 142ZM58 142L100 142L100 163ZM58 58L58 100L37 100ZM184 100L142 100L142 79ZM142 142L142 100L163 100ZM16 100L58 100L58 121Z"/><path fill="#4c4c4c" d="M37 58L16 37L37 16L58 37ZM142 37L163 16L184 37L163 58ZM163 142L184 163L163 184L142 163ZM58 163L37 184L16 163L37 142Z"/><path fill="#d19375" d="M72 72L100 72L100 100L72 100ZM128 72L128 100L100 100L100 72ZM128 128L100 128L100 100L128 100ZM72 128L72 100L100 100L100 128Z"/></svg>