<svg xmlns="http://www.w3.org/2000/svg" width="200" height="200" viewBox="0 0 200 200" preserveAspectRatio="xMidYMid meet"><path fill="#accae3" d="M100 16L100 58L58 58ZM142 58L100 58L100 16ZM100 184L100 142L142 142ZM58 142L100 142L100 184ZM58 58L58 100L16 100ZM184 100L142 100L142 58ZM142 142L142 100L184 100ZM16 100L58 100L58 142Z"/><path fill="#5996c7" d="M16 58L16 16L37 16ZM142 16L184 16L184 37ZM184 142L184 184L163 184ZM58 184L16 184L16 163ZM74.8 100a25.2,25.2 0 1,1 50.4,0a25.2,25.2 0 1,1 -50.4,0"/></svg>