<svg xmlns="http://www.w3.org/2000/svg" width="200" height="200" viewBox="0 0 200 200" preserveAspectRatio="xMidYMid meet"><path fill="#e5e5e5" d="M100 16L100 58L79 58ZM142 58L100 58L100 37ZM100 184L100 142L121 142ZM58 142L100 142L100 163ZM58 58L58 100L37 100ZM184 100L142 100L142 79ZM142 142L142 100L163 100ZM16 100L58 100L58 121Z"/><path fill="#66cc7e" d="M58 16L58 58L16 58ZM184 58L142 58L142 16ZM142 184L142 142L184 142ZM16 142L58 142L58 184ZM58 58L100 58L100 100L58 100ZM85.3 95.8L95.8 74.8L74.8 74.8ZM142 58L142 100L100 100L100 58ZM104.2 85.3L125.2 95.8L125.2 74.8ZM142 142L100 142L100 100L142 100ZM114.7 104.2L104.2 125.2L125.2 125.2ZM58 142L58 100L100 100L100 142ZM95.8 114.7L74.8 104.2L74.8 125.2Z"/></svg>