<svg xmlns="http://www.w3.org/2000/svg" width="200" height="200" viewBox="0 0 200 200" preserveAspectRatio="xMidYMid meet"><path fill="#cca966" d="M65 37a14,14 0 1,1 28,0a14,14 0 1,1 -28,0M107 37a14,14 0 1,1 28,0a14,14 0 1,1 -28,0M107 163a14,14 0 1,1 28,0a14,14 0 1,1 -28,0M65 163a14,14 0 1,1 28,0a14,14 0 1,1 -28,0M23 79a14,14 0 1,1 28,0a14,14 0 1,1 -28,0M149 79a14,14 0 1,1 28,0a14,14 0 1,1 -28,0M149 121a14,14 0 1,1 28,0a14,14 0 1,1 -28,0M23 121a14,14 0 1,1 28,0a14,14 0 1,1 -28,0M72 72L100 72L100 100L72 100ZM128 72L128 100L100 100L100 72ZM128 128L100 128L100 100L128 100ZM72 128L72 100L100 100L100 128Z"/><path fill="#997632" d="M16 16L58 16L58 58ZM184 16L184 58L142 58ZM184 184L142 184L142 142ZM16 184L16 142L58 142Z"/></svg>