<svg xmlns="http://www.w3.org/2000/svg" width="200" height="200" viewBox="0 0 200 200" preserveAspectRatio="xMidYMid meet"><path fill="#849bd6" d="M100 16L100 58L79 58ZM142 58L100 58L100 37ZM100 184L100 142L121 142ZM58 142L100 142L100 163ZM58 58L58 100L37 100ZM184 100L142 100L142 79ZM142 142L142 100L163 100ZM16 100L58 100L58 121Z"/><path fill="#3d5eb7" d="M16 37L37 16L58 37L37 58ZM163 16L184 37L163 58L142 37ZM184 163L163 184L142 163L163 142ZM37 184L16 163L37 142L58 163Z"/><path fill="#e5e5e5" d="M58 58L100 58L100 64.72L82.36 100L58 100ZM142 58L142 100L135.28 100L100 82.36L100 58ZM142 142L100 142L100 135.28L117.64 100L142 100ZM58 142L58 100L64.72 100L100 117.64L100 142Z"/></svg>