<svg xmlns="http://www.w3.org/2000/svg" width="200" height="200" viewBox="0 0 200 200" preserveAspectRatio="xMidYMid meet"><path fill="#e5e5e5" d="M58 58L58 16L79 16ZM100 16L142 16L142 37ZM142 142L142 184L121 184ZM100 184L58 184L58 163ZM16 100L16 58L37 58ZM142 58L184 58L184 79ZM184 100L184 142L163 142ZM58 142L16 142L16 121Z"/><path fill="#d18375" d="M16 16L58 16L58 37ZM184 16L184 58L163 58ZM184 184L142 184L142 163ZM16 184L16 142L37 142Z"/><path fill="#a84938" d="M58 58L100 58L100 64.72L82.36 100L58 100ZM142 58L142 100L135.28 100L100 82.36L100 58ZM142 142L100 142L100 135.28L117.64 100L142 100ZM58 142L58 100L64.72 100L100 117.64L100 142Z"/></svg>