<svg xmlns="http://www.w3.org/2000/svg" width="200" height="200" viewBox="0 0 200 200" preserveAspectRatio="xMidYMid meet"><path fill="#7f9932" d="M100 58L58 58L58 37ZM100 58L100 16L121 16ZM100 142L142 142L142 163ZM100 142L100 184L79 184ZM58 100L16 100L16 79ZM142 100L142 58L163 58ZM142 100L184 100L184 121ZM58 100L58 142L37 142Z"/><path fill="#b2cc66" d="M58 58L16 58L16 16ZM142 58L142 16L184 16ZM142 142L184 142L184 184ZM58 142L58 184L16 184Z"/><path fill="#d8e5b2" d="M58 58L100 58L100 79L58 79ZM58 79L79 79L79 100L58 100ZM100 79L79 100L79 79ZM142 58L142 100L121 100L121 58ZM121 58L121 79L100 79L100 58ZM121 100L100 79L121 79ZM142 142L100 142L100 121L142 121ZM142 121L121 121L121 100L142 100ZM100 121L121 100L121 121ZM58 142L58 100L79 100L79 142ZM79 142L79 121L100 121L100 142ZM79 100L100 121L79 121Z"/></svg>