<svg xmlns="http://www.w3.org/2000/svg" width="200" height="200" viewBox="0 0 200 200" preserveAspectRatio="xMidYMid meet"><path fill="#4c4c4c" d="M100 16L100 58L58 58ZM142 58L100 58L100 16ZM100 184L100 142L142 142ZM58 142L100 142L100 184ZM58 58L58 100L16 100ZM184 100L142 100L142 58ZM142 142L142 100L184 100ZM16 100L58 100L58 142Z"/><path fill="#cca166" d="M58 16L58 58L37 58ZM184 58L142 58L142 37ZM142 184L142 142L163 142ZM16 142L58 142L58 163ZM58 58L100 58L100 100L58 100ZM73.12 84.04a10.92,10.92 0 1,0 21.84,0a10.92,10.92 0 1,0 -21.84,0M142 58L142 100L100 100L100 58ZM105.03999999999999 84.04a10.92,10.92 0 1,0 21.84,0a10.92,10.92 0 1,0 -21.84,0M142 142L100 142L100 100L142 100ZM105.03999999999999 115.96a10.92,10.92 0 1,0 21.84,0a10.92,10.92 0 1,0 -21.84,0M58 142L58 100L100 100L100 142ZM73.12 115.96a10.92,10.92 0 1,0 21.84,0a10.92,10.92 0 1,0 -21.84,0"/></svg>