<svg xmlns="http://www.w3.org/2000/svg" width="200" height="200" viewBox="0 0 200 200" preserveAspectRatio="xMidYMid meet"><path fill="#c1d3ea" d="M100 37L79 58L58 37L79 16ZM121 58L100 37L121 16L142 37ZM100 163L121 142L142 163L121 184ZM79 142L100 163L79 184L58 163ZM58 79L37 100L16 79L37 58ZM163 100L142 79L163 58L184 79ZM142 121L163 100L184 121L163 142ZM37 100L58 121L37 142L16 121Z"/><path fill="#84a7d6" d="M58 58L16 58L16 16ZM142 58L142 16L184 16ZM142 142L184 142L184 184ZM58 142L58 184L16 184ZM73 83.5a10.5,10.5 0 1,1 21,0a10.5,10.5 0 1,1 -21,0M106 83.5a10.5,10.5 0 1,1 21,0a10.5,10.5 0 1,1 -21,0M106 116.5a10.5,10.5 0 1,1 21,0a10.5,10.5 0 1,1 -21,0M73 116.5a10.5,10.5 0 1,1 21,0a10.5,10.5 0 1,1 -21,0"/></svg>