<svg xmlns="http://www.w3.org/2000/svg" width="200" height="200" viewBox="0 0 200 200" preserveAspectRatio="xMidYMid meet"><path fill="#d1758b" d="M65 37a14,14 0 1,1 28,0a14,14 0 1,1 -28,0M107 37a14,14 0 1,1 28,0a14,14 0 1,1 -28,0M107 163a14,14 0 1,1 28,0a14,14 0 1,1 -28,0M65 163a14,14 0 1,1 28,0a14,14 0 1,1 -28,0M23 79a14,14 0 1,1 28,0a14,14 0 1,1 -28,0M149 79a14,14 0 1,1 28,0a14,14 0 1,1 -28,0M149 121a14,14 0 1,1 28,0a14,14 0 1,1 -28,0M23 121a14,14 0 1,1 28,0a14,14 0 1,1 -28,0"/><path fill="#4c4c4c" d="M23 37a14,14 0 1,1 28,0a14,14 0 1,1 -28,0M149 37a14,14 0 1,1 28,0a14,14 0 1,1 -28,0M149 163a14,14 0 1,1 28,0a14,14 0 1,1 -28,0M23 163a14,14 0 1,1 28,0a14,14 0 1,1 -28,0"/><path fill="#e5e5e5" d="M58 58L100 58L100 100L58 100ZM85.3 95.8L95.8 74.8L74.8 74.8ZM142 58L142 100L100 100L100 58ZM104.2 85.3L125.2 95.8L125.2 74.8ZM142 142L100 142L100 100L142 100ZM114.7 104.2L104.2 125.2L125.2 125.2ZM58 142L58 100L100 100L100 142ZM95.8 114.7L74.8 104.2L74.8 125.2Z"/></svg>