<svg xmlns="http://www.w3.org/2000/svg" width="200" height="200" viewBox="0 0 200 200" preserveAspectRatio="xMidYMid meet"><path fill="#4c4c4c" d="M58 58L58 16L79 16ZM100 16L142 16L142 37ZM142 142L142 184L121 184ZM100 184L58 184L58 163ZM16 100L16 58L37 58ZM142 58L184 58L184 79ZM184 100L184 142L163 142ZM58 142L16 142L16 121Z"/><path fill="#8493d6" d="M58 16L58 58L37 58ZM184 58L142 58L142 37ZM142 184L142 142L163 142ZM16 142L58 142L58 163Z"/><path fill="#e5e5e5" d="M68 68L96 68L96 96L68 96ZM132 68L132 96L104 96L104 68ZM132 132L104 132L104 104L132 104ZM68 132L68 104L96 104L96 132Z"/></svg>