<svg xmlns="http://www.w3.org/2000/svg" width="200" height="200" viewBox="0 0 200 200" preserveAspectRatio="xMidYMid meet"><path fill="#3d5bb7" d="M79 16L100 37L79 58L58 37ZM142 37L121 58L100 37L121 16ZM121 184L100 163L121 142L142 163ZM58 163L79 142L100 163L79 184ZM37 58L58 79L37 100L16 79ZM184 79L163 100L142 79L163 58ZM163 142L142 121L163 100L184 121ZM16 121L37 100L58 121L37 142Z"/><path fill="#8498d6" d="M58 58L16 58L16 16ZM142 58L142 16L184 16ZM142 142L184 142L184 184ZM58 142L58 184L16 184Z"/><path fill="#e5e5e5" d="M58 58L100 58L100 100L58 100ZM73.12 84.04a10.92,10.92 0 1,0 21.84,0a10.92,10.92 0 1,0 -21.84,0M142 58L142 100L100 100L100 58ZM105.03999999999999 84.04a10.92,10.92 0 1,0 21.84,0a10.92,10.92 0 1,0 -21.84,0M142 142L100 142L100 100L142 100ZM105.03999999999999 115.96a10.92,10.92 0 1,0 21.84,0a10.92,10.92 0 1,0 -21.84,0M58 142L58 100L100 100L100 142ZM73.12 115.96a10.92,10.92 0 1,0 21.84,0a10.92,10.92 0 1,0 -21.84,0"/></svg>