<svg xmlns="http://www.w3.org/2000/svg" width="200" height="200" viewBox="0 0 200 200" preserveAspectRatio="xMidYMid meet"><path fill="#e5e5e5" d="M100 58L58 58L58 16ZM100 58L100 16L142 16ZM100 142L142 142L142 184ZM100 142L100 184L58 184ZM58 100L16 100L16 58ZM142 100L142 58L184 58ZM142 100L184 100L184 142ZM58 100L58 142L16 142Z"/><path fill="#d17585" d="M23 37a14,14 0 1,1 28,0a14,14 0 1,1 -28,0M149 37a14,14 0 1,1 28,0a14,14 0 1,1 -28,0M149 163a14,14 0 1,1 28,0a14,14 0 1,1 -28,0M23 163a14,14 0 1,1 28,0a14,14 0 1,1 -28,0M58 58L100 58L100 100L58 100ZM68.5 84.25L84.25 100L100 84.25L84.25 68.5ZM142 58L142 100L100 100L100 58ZM115.75 68.5L100 84.25L115.75 100L131.5 84.25ZM142 142L100 142L100 100L142 100ZM131.5 115.75L115.75 100L100 115.75L115.75 131.5ZM58 142L58 100L100 100L100 142ZM84.25 131.5L100 115.75L84.25 100L68.5 115.75Z"/></svg>