<svg xmlns="http://www.w3.org/2000/svg" width="200" height="200" viewBox="0 0 200 200" preserveAspectRatio="xMidYMid meet"><path fill="#4c4c4c" d="M65 37a14,14 0 1,1 28,0a14,14 0 1,1 -28,0M107 37a14,14 0 1,1 28,0a14,14 0 1,1 -28,0M107 163a14,14 0 1,1 28,0a14,14 0 1,1 -28,0M65 163a14,14 0 1,1 28,0a14,14 0 1,1 -28,0M23 79a14,14 0 1,1 28,0a14,14 0 1,1 -28,0M149 79a14,14 0 1,1 28,0a14,14 0 1,1 -28,0M149 121a14,14 0 1,1 28,0a14,14 0 1,1 -28,0M23 121a14,14 0 1,1 28,0a14,14 0 1,1 -28,0"/><path fill="#a384d6" d="M16 16L58 16L58 58ZM184 16L184 58L142 58ZM184 184L142 184L142 142ZM16 184L16 142L58 142ZM100 58L100 91L79 58ZM142 100L109 100L142 79ZM100 142L100 109L121 142ZM58 100L91 100L58 121Z"/></svg>