<svg xmlns="http://www.w3.org/2000/svg" width="200" height="200" viewBox="0 0 200 200" preserveAspectRatio="xMidYMid meet"><path fill="#e8babd" d="M58 16L100 16L100 37ZM142 16L142 58L121 58ZM142 184L100 184L100 163ZM58 184L58 142L79 142ZM16 58L58 58L58 79ZM184 58L184 100L163 100ZM184 142L142 142L142 121ZM16 142L16 100L37 100Z"/><path fill="#4c4c4c" d="M23 37a14,14 0 1,1 28,0a14,14 0 1,1 -28,0M149 37a14,14 0 1,1 28,0a14,14 0 1,1 -28,0M149 163a14,14 0 1,1 28,0a14,14 0 1,1 -28,0M23 163a14,14 0 1,1 28,0a14,14 0 1,1 -28,0"/><path fill="#d1757b" d="M58 58L100 58L100 64.72L82.36 100L58 100ZM142 58L142 100L135.28 100L100 82.36L100 58ZM142 142L100 142L100 135.28L117.64 100L142 100ZM58 142L58 100L64.72 100L100 117.64L100 142Z"/></svg>