<svg xmlns="http://www.w3.org/2000/svg" width="200" height="200" viewBox="0 0 200 200" preserveAspectRatio="xMidYMid meet"><path fill="#2e8c75" d="M65 37a14,14 0 1,1 28,0a14,14 0 1,1 -28,0M107 37a14,14 0 1,1 28,0a14,14 0 1,1 -28,0M107 163a14,14 0 1,1 28,0a14,14 0 1,1 -28,0M65 163a14,14 0 1,1 28,0a14,14 0 1,1 -28,0M23 79a14,14 0 1,1 28,0a14,14 0 1,1 -28,0M149 79a14,14 0 1,1 28,0a14,14 0 1,1 -28,0M149 121a14,14 0 1,1 28,0a14,14 0 1,1 -28,0M23 121a14,14 0 1,1 28,0a14,14 0 1,1 -28,0"/><path fill="#59c7ad" d="M16 58L16 16L58 16ZM142 16L184 16L184 58ZM184 142L184 184L142 184ZM58 184L16 184L16 142ZM74.8 100a25.2,25.2 0 1,1 50.4,0a25.2,25.2 0 1,1 -50.4,0"/></svg>