<svg xmlns="http://www.w3.org/2000/svg" width="200" height="200" viewBox="0 0 200 200" preserveAspectRatio="xMidYMid meet"><path fill="#4c4c4c" d="M58 58L58 16L100 16ZM100 16L142 16L142 58ZM142 142L142 184L100 184ZM100 184L58 184L58 142ZM16 100L16 58L58 58ZM142 58L184 58L184 100ZM184 100L184 142L142 142ZM58 142L16 142L16 100Z"/><path fill="#cccb66" d="M58 16L58 58L37 58ZM184 58L142 58L142 37ZM142 184L142 142L163 142ZM16 142L58 142L58 163Z"/><path fill="#e5e5e5" d="M58 58L100 58L100 87.4L74.8 74.8L87.4 100L58 100ZM142 58L142 100L112.6 100L125.2 74.8L100 87.4L100 58ZM142 142L100 142L100 112.6L125.2 125.2L112.6 100L142 100ZM58 142L58 100L87.4 100L74.8 125.2L100 112.6L100 142Z"/></svg>