<svg xmlns="http://www.w3.org/2000/svg" width="200" height="200" viewBox="0 0 200 200" preserveAspectRatio="xMidYMid meet"><path fill="#e5e5e5" d="M58 37L79 16L100 37L79 58ZM121 16L142 37L121 58L100 37ZM142 163L121 184L100 163L121 142ZM79 184L58 163L79 142L100 163ZM16 79L37 58L58 79L37 100ZM163 58L184 79L163 100L142 79ZM184 121L163 142L142 121L163 100ZM37 142L16 121L37 100L58 121Z"/><path fill="#59b3c7" d="M16 16L58 16L58 37ZM184 16L184 58L163 58ZM184 184L142 184L142 163ZM16 184L16 142L37 142ZM100 58L100 91L79 58ZM142 100L109 100L142 79ZM100 142L100 109L121 142ZM58 100L91 100L58 121Z"/></svg>