<svg xmlns="http://www.w3.org/2000/svg" width="200" height="200" viewBox="0 0 200 200" preserveAspectRatio="xMidYMid meet"><path fill="#8684d6" d="M100 16L100 58L58 58ZM142 58L100 58L100 16ZM100 184L100 142L142 142ZM58 142L100 142L100 184ZM58 58L58 100L16 100ZM184 100L142 100L142 58ZM142 142L142 100L184 100ZM16 100L58 100L58 142Z"/><path fill="#e5e5e5" d="M16 16L58 16L58 37ZM184 16L184 58L163 58ZM184 184L142 184L142 163ZM16 184L16 142L37 142Z"/><path fill="#403db7" d="M73 83.5a10.5,10.5 0 1,1 21,0a10.5,10.5 0 1,1 -21,0M106 83.5a10.5,10.5 0 1,1 21,0a10.5,10.5 0 1,1 -21,0M106 116.5a10.5,10.5 0 1,1 21,0a10.5,10.5 0 1,1 -21,0M73 116.5a10.5,10.5 0 1,1 21,0a10.5,10.5 0 1,1 -21,0"/></svg>