<svg xmlns="http://www.w3.org/2000/svg" width="200" height="200" viewBox="0 0 200 200" preserveAspectRatio="xMidYMid meet"><path fill="#accae3" d="M58 16L100 16L100 58ZM142 16L142 58L100 58ZM142 184L100 184L100 142ZM58 184L58 142L100 142ZM16 58L58 58L58 100ZM184 58L184 100L142 100ZM184 142L142 142L142 100ZM16 142L16 100L58 100Z"/><path fill="#4c4c4c" d="M23 37a14,14 0 1,1 28,0a14,14 0 1,1 -28,0M149 37a14,14 0 1,1 28,0a14,14 0 1,1 -28,0M149 163a14,14 0 1,1 28,0a14,14 0 1,1 -28,0M23 163a14,14 0 1,1 28,0a14,14 0 1,1 -28,0"/><path fill="#5995c7" d="M73 83.5a10.5,10.5 0 1,1 21,0a10.5,10.5 0 1,1 -21,0M106 83.5a10.5,10.5 0 1,1 21,0a10.5,10.5 0 1,1 -21,0M106 116.5a10.5,10.5 0 1,1 21,0a10.5,10.5 0 1,1 -21,0M73 116.5a10.5,10.5 0 1,1 21,0a10.5,10.5 0 1,1 -21,0"/></svg>