<svg xmlns="http://www.w3.org/2000/svg" width="200" height="200" viewBox="0 0 200 200" preserveAspectRatio="xMidYMid meet"><path fill="#a375d1" d="M79 16L100 37L79 58L58 37ZM142 37L121 58L100 37L121 16ZM121 184L100 163L121 142L142 163ZM58 163L79 142L100 163L79 184ZM37 58L58 79L37 100L16 79ZM184 79L163 100L142 79L163 58ZM163 142L142 121L163 100L184 121ZM16 121L37 100L58 121L37 142ZM58 58L100 58L100 100L58 100ZM68.5 84.25L84.25 100L100 84.25L84.25 68.5ZM142 58L142 100L100 100L100 58ZM115.75 68.5L100 84.25L115.75 100L131.5 84.25ZM142 142L100 142L100 100L142 100ZM131.5 115.75L115.75 100L100 115.75L115.75 131.5ZM58 142L58 100L100 100L100 142ZM84.25 131.5L100 115.75L84.25 100L68.5 115.75Z"/><path fill="#4c4c4c" d="M16 16L58 16L58 58ZM184 16L184 58L142 58ZM184 184L142 184L142 142ZM16 184L16 142L58 142Z"/></svg>