<svg xmlns="http://www.w3.org/2000/svg" width="200" height="200" viewBox="0 0 200 200" preserveAspectRatio="xMidYMid meet"><path fill="#4c4c4c" d="M100 37L79 58L58 37L79 16ZM121 58L100 37L121 16L142 37ZM100 163L121 142L142 163L121 184ZM79 142L100 163L79 184L58 163ZM58 79L37 100L16 79L37 58ZM163 100L142 79L163 58L184 79ZM142 121L163 100L184 121L163 142ZM37 100L58 121L37 142L16 121Z"/><path fill="#848ed6" d="M58 58L16 58L16 37ZM142 58L142 16L163 16ZM142 142L184 142L184 163ZM58 142L58 184L37 184ZM58 58L100 58L100 100L58 100ZM85.3 95.8L95.8 74.8L74.8 74.8ZM142 58L142 100L100 100L100 58ZM104.2 85.3L125.2 95.8L125.2 74.8ZM142 142L100 142L100 100L142 100ZM114.7 104.2L104.2 125.2L125.2 125.2ZM58 142L58 100L100 100L100 142ZM95.8 114.7L74.8 104.2L74.8 125.2Z"/></svg>