<svg xmlns="http://www.w3.org/2000/svg" width="200" height="200" viewBox="0 0 200 200" preserveAspectRatio="xMidYMid meet"><path fill="#a86738" d="M58 58L58 16L100 16ZM100 16L142 16L142 58ZM142 142L142 184L100 184ZM100 184L58 184L58 142ZM16 100L16 58L58 58ZM142 58L184 58L184 100ZM184 100L184 142L142 142ZM58 142L16 142L16 100Z"/><path fill="#e8cdba" d="M58 58L16 58L16 16ZM142 58L142 16L184 16ZM142 142L184 142L184 184ZM58 142L58 184L16 184Z"/><path fill="#d19c75" d="M100 79L100 100L79 100ZM121 100L100 100L100 79ZM100 121L100 100L121 100ZM79 100L100 100L100 121Z"/></svg>