<svg xmlns="http://www.w3.org/2000/svg" width="200" height="200" viewBox="0 0 200 200" preserveAspectRatio="xMidYMid meet"><path fill="#e8babc" d="M58 58L58 16L79 16ZM100 16L142 16L142 37ZM142 142L142 184L121 184ZM100 184L58 184L58 163ZM16 100L16 58L37 58ZM142 58L184 58L184 79ZM184 100L184 142L163 142ZM58 142L16 142L16 121Z"/><path fill="#d1757a" d="M37 16L58 37L37 58L16 37ZM184 37L163 58L142 37L163 16ZM163 184L142 163L163 142L184 163ZM16 163L37 142L58 163L37 184ZM58 58L100 58L100 100L58 100ZM68.5 84.25L84.25 100L100 84.25L84.25 68.5ZM142 58L142 100L100 100L100 58ZM115.75 68.5L100 84.25L115.75 100L131.5 84.25ZM142 142L100 142L100 100L142 100ZM131.5 115.75L115.75 100L100 115.75L115.75 131.5ZM58 142L58 100L100 100L100 142ZM84.25 131.5L100 115.75L84.25 100L68.5 115.75Z"/></svg>