<svg xmlns="http://www.w3.org/2000/svg" viewBox="0 0 31 31"><path d="M1 1h7v7h-7zM10 1h1v1h-1zM13 1h4v1h1v1h-1v1h-1v1h2v1h-1v1h-1v-1h-1v-3h-1v-1h-1zM18 1h4v1h-1v1h-1v1h2v1h-1v1h1v2h-1v-1h-1v-1h-1v-4h-1zM23 1h7v7h-7zM2 2v5h5v-5zM9 2h1v1h-1zM12 2h1v1h-1zM24 2v5h5v-5zM3 3h3v3h-3zM11 3h1v2h-1zM13 3h1v3h-1zM25 3h3v3h-3zM9 5h2v1h2v1h-1v1h1v-1h1v1h1v1h1v4h-1v1h-2v-2h-1v-1h2v1h1v-1h-1v-2h-2v2h-1v-1h-1v-1h1v-2h-1v-1h-1zM9 7h1v1h-1zM15 7h1v1h-1zM17 7h1v1h1v-1h1v1h1v1h1v1h2v1h-3v-1h-1v-1h-1v1h-1v-1h-2v-1h1zM1 9h1v1h-1zM3 9h1v1h-1zM5 9h1v1h-1zM7 9h1v1h-1zM25 9h1v1h-1zM28 9h1v1h-1zM2 10h1v3h3v-1h-2v-1h2v-1h1v1h1v-1h1v2h-2v1h1v1h-3v1h1v1h1v1h2v-1h2v1h-1v1h-1v1h1v1h-3v-1h1v-1h-1v1h-1v-1h-1v-1h-2v-1h1v-2h-2v1h-1v-4h1zM17 10h1v1h1v1h4v1h1v2h2v1h-1v1h-1v-1h-2v-1h1v-1h-1v1h-1v-1h-1v-1h-1v1h-1v1h-1v-1h-1v-1h1zM26 10h1v1h-1zM29 10h1v2h-1v1h1v3h-1v1h1v3h-1v1h-1v-2h1v-1h-1v-3h1v-1h-1v-2h-1v-1h2zM25 11h1v1h1v2h1v1h-2v-2h-1zM11 12h1v1h-1zM10 13h1v1h1v2h-1v-1h-2v-1h1zM7 15h1v1h-1zM15 15h1v1h6v1h2v2h1v1h-1v1h2v2h1v1h-1v4h-2v-2h-1v1h-1v3h-2v-1h1v-1h-1v-2h1v-2h-1v-3h-1v2h-2v-1h-1v-2h2v-1h1v1h2v1h1v-1h1v-1h-2v-1h-3v1h-1v-2h-2v1h-1v1h-1v-1h-1v-1h2v-1h1zM26 16h1v1h-1zM2 17h1v2h-1zM4 18h1v1h1v1h-2zM10 18h2v1h1v2h-1v-1h-1v-1h-1zM27 18h1v1h-1zM1 19h1v1h-1zM26 19h1v2h-1zM2 20h2v1h-2zM6 20h1v1h2v1h-3zM10 20h1v3h-2v-1h1zM14 20h1v2h-1zM1 21h1v1h-1zM12 22h1v1h1v1h1v-1h1v1h3v2h-1v-1h-2v1h-1v-1h-1v1h-1v-2h-1zM22 22v3h3v-3zM27 22h3v3h-2v-2h-1zM1 23h7v7h-7zM23 23h1v1h-1zM2 24v5h5v-5zM11 24h1v1h-1zM3 25h3v3h-3zM9 25h2v1h-2zM12 26h1v2h-1v2h-1v-1h-1v-1h1v-1h1zM14 26h1v1h-1zM17 26h1v1h-1zM27 26h3v2h-1v-1h-1v1h-1zM9 27h1v1h-1zM18 27h1v1h1v1h-1v1h-2v-1h1zM13 28h2v1h-2zM23 28h1v1h-1zM28 28h1v1h1v1h-2zM9 29h1v1h-1zM24 29h2v1h-2z"/></svg>