<svg xmlns="http://www.w3.org/2000/svg" viewBox="0 0 31 31"><path d="M1 1h7v7h-7zM13 1h2v1h-2zM17 1h4v1h-2v1h-1v1h-1v-1h-2v-1h2zM23 1h7v7h-7zM2 2v5h5v-5zM12 2h1v1h-1zM24 2v5h5v-5zM3 3h3v3h-3zM9 3h1v1h1v1h1v1h-1v1h-1v2h-1zM11 3h1v1h-1zM13 3h1v1h2v1h-1v1h-1v2h-1v-3h-1v-1h1zM19 3h1v1h-1zM21 3h1v5h-1v-2h-1v2h-1v-1h-1v-1h1v-1h2zM25 3h3v3h-3zM18 4h1v1h-1zM16 6h1v1h-1zM11 7h1v2h1v1h-3v-1h1zM15 7h1v1h1v-1h1v2h1v1h1v-1h1v1h2v-1h5v1h-2v2h-1v-1h-1v1h-1v1h-2v-2h-2v1h-1v-1h-1v-1h-1v1h1v1h-1v2h-2v-1h1v-1h-1v-1h1v-1h-1v-1h1zM1 9h1v2h-1zM3 9h5v1h-3v2h1v2h-1v1h1v2h2v1h-3v2h1v1h-2v-2h-2v3h-1v-5h2v1h1v-1h1v-1h-2v-1h1v-1h-1v1h-2v-2h1v-2h2v-1h-1zM9 10h1v1h1v2h-2v1h-2v-1h1v-1h-2v-1h3zM29 10h1v1h-1zM13 12h1v1h-1zM17 12h1v1h-1zM24 12h1v1h-1zM28 12h1v1h-1zM11 13h2v1h1v1h-1v1h-1v-2h-1zM18 13h1v1h1v-1h1v1h1v3h-1v-2h-3v2h-1v1h-2v-3h2v-1h1zM26 13h2v3h-1v-2h-1zM6 14h1v1h-1zM9 14h2v1h-1v1h1v2h1v1h1v1h-1v1h-2v-2h-2v-1h2v-1h-2v-1h-1v-1h2zM23 14h3v3h-1v-1h-1v-1h-1zM29 14h1v1h-1zM13 16h1v2h-2v-1h1zM28 16h1v1h-1zM18 17h3v1h6v-1h1v3h-2v-1h-1v1h1v2h1v-1h1v-1h1v1h1v2h-2v1h-1v1h-1v1h-3v1h3v1h1v1h-1v1h-4v-1h1v-1h-1v-1h-1v-2h-2v-1h1v-1h1v-1h-1v-1h2v-1h-1v-1h-2v1h-1v1h-2v-1h-2v-2h1v1h2v-1h1zM29 18h1v1h-1zM6 19h2v1h-2zM23 19v1h1v-1zM13 20h1v1h2v1h-1v1h-1v-1h-1v1h-1v-2h1zM3 21h1v1h-1zM6 21h3v1h-3zM18 21h1v1h-1zM9 22h1v1h-1zM17 22h1v3h1v1h1v1h-1v1h-3v1h-2v-2h3v-1h-1v-2h-1v-1h2zM19 22h1v1h-1zM22 22v3h3v-3zM1 23h7v7h-7zM11 23h1v1h-1zM13 23h1v1h-1zM23 23h1v1h-1zM2 24v5h5v-5zM9 24h2v1h1v2h-1v-1h-1v2h-1zM28 24h2v3h-1v2h-1v-2h-2v-1h1v-1h1zM3 25h3v3h-3zM12 27h1v2h-1v1h-3v-1h1v-1h2zM20 27h1v1h1v1h-1v1h-1zM13 29h1v1h-1zM16 29h1v1h-1zM18 29h1v1h-1zM27 29h1v1h-1z"/></svg>