<svg xmlns="http://www.w3.org/2000/svg" viewBox="0 0 31 31"><path d="M1 1h7v7h-7zM12 1h3v1h-3zM17 1h4v1h-2v1h-1v1h-1v-1h-2v-1h2zM23 1h7v7h-7zM2 2v5h5v-5zM24 2v5h5v-5zM3 3h3v3h-3zM9 3h1v2h2v-1h-1v-1h3v1h-1v2h1v3h1v1h-3v-2h1v-1h-1v-1h-2v3h-1zM19 3h1v1h-1zM21 3h1v5h-1v-2h-1v2h-1v-1h-1v-1h1v-1h2zM25 3h3v3h-3zM14 4h2v1h-1v1h-1zM18 4h1v1h-1zM15 6h2v1h-1v1h-1zM11 7h1v1h-1zM17 7h1v2h1v1h1v-1h1v1h2v-1h5v1h-2v2h-1v-1h-1v1h-1v1h-2v-2h-2v1h-1v-1h-1v-1h-1v-2h1zM1 9h1v1h1v1h2v-1h-2v-1h5v1h-2v2h-2v1h-1v-1h-1v1h-1zM11 10h1v2h-1zM15 10h1v1h-1zM29 10h1v1h-1zM7 11h1v1h-1zM9 11h1v1h-1zM13 11h2v1h-1v1h2v1h-1v1h-1v-1h-2v-2h1zM16 11h1v1h-1zM6 12h1v1h-1zM8 12h1v1h-1zM10 12h1v1h-1zM17 12h1v1h-1zM24 12h1v1h-1zM28 12h1v1h-1zM2 13h1v3h-1v6h-1v-8h1zM4 13h1v1h2v1h1v1h-2v-1h-1v1h1v1h2v1h-1v1h1v1h-2v-2h-1v-1h-1v1h1v2h-1v-1h-1v-3h1zM7 13h1v1h-1zM9 13h1v1h-1zM18 13h1v1h1v-1h1v1h1v3h-1v-2h-3v2h-1v1h-1v-2h-1v-1h2v-1h1zM26 13h2v3h-1v-2h-1zM10 14h1v1h-1zM23 14h3v3h-1v-1h-1v-1h-1zM29 14h1v1h-1zM11 15h3v2h-1v-1h-1v1h1v1h-2zM28 16h1v1h-1zM14 17h1v1h-1zM18 17h3v1h6v-1h1v3h-2v-1h-1v1h1v2h1v-1h1v-1h1v1h1v2h-2v1h-1v1h-1v1h-3v1h3v1h1v1h-1v1h-4v-1h1v-1h-1v-1h-1v-2h-2v-1h1v-1h1v-1h-1v-1h2v-1h-1v-1h-2v1h-1v1h-2v-2h1v-1h1zM10 18h1v2h-2v-1h1zM15 18h1v1h-1zM29 18h1v1h-1zM23 19v1h1v-1zM5 20h1v1h2v1h-3zM8 20h1v1h-1zM11 20h1v2h2v1h-1v2h-1v1h-2v1h2v1h-3v-4h1v1h1v-2h-2v-2h1v1h1zM13 20h1v1h-1zM3 21h1v1h-1zM14 21h1v1h-1zM18 21h1v1h-1zM15 22h1v1h-1zM17 22h1v3h1v1h1v1h-1v1h-3v-1h1v-1h-1v-3h1zM19 22h1v1h-1zM22 22v3h3v-3zM1 23h7v7h-7zM14 23h1v1h-1zM23 23h1v1h-1zM2 24v5h5v-5zM28 24h2v3h-1v2h-1v-2h-2v-1h1v-1h1zM3 25h3v3h-3zM14 27h1v1h-1zM20 27h1v1h1v1h-1v1h-1zM12 28h1v2h-4v-1h3zM15 28h1v1h1v1h-3v-1h1zM18 29h1v1h-1zM27 29h1v1h-1z"/></svg>