<svg xmlns="http://www.w3.org/2000/svg" viewBox="0 0 31 31"><path d="M1 1h7v7h-7zM12 1h1v2h-2v1h-1v-2h2zM16 1h1v3h-1v1h-1v-2h1zM18 1h4v1h-2v2h1v-1h1v2h-2v1h-1v-2h-1v-1h1v-1h-1zM23 1h7v7h-7zM2 2v5h5v-5zM14 2h1v1h-1zM24 2v5h5v-5zM3 3h3v3h-3zM25 3h3v3h-3zM12 4h1v1h-1zM11 5h1v1h-1zM13 5h2v1h-2zM16 5h1v2h-1v1h1v1h-1v3h-1v-1h-1v-1h-1v1h-2v-1h-2v-1h1v-1h1v1h2v-2h1v2h1v-3h1zM9 6h2v1h-1v1h-1zM18 6h1v1h-1zM20 6h1v1h-1zM11 7h1v1h-1zM17 7h1v1h-1zM19 7h1v2h-2v-1h1zM21 7h1v1h-1zM1 9h1v1h2v1h2v1h-2v1h-1v-2h-1v1h-1zM4 9h1v1h-1zM6 9h2v1h-2zM20 9h1v1h-1zM22 9h1v1h1v2h-1v-1h-2v-1h1zM24 9h1v1h-1zM17 10h1v1h-1zM26 10h1v1h2v2h1v1h-2v-1h-1v1h-1v-1h-2v-1h1v-1h1zM29 10h1v1h-1zM7 11h2v1h3v3h-2v-2h-2v-1h-1zM18 11h1v1h-1zM20 11h1v2h1v-1h1v1h1v1h-2v1h2v1h-2v1h1v1h2v2h-2v-1h-1v-1h-1v-1h-1v1h-1v2h1v1h-2v-2h-1v-1h1v-1h-4v-2h1v1h3v-1h1v1h2v-1h-1v-2h-1v-1h1zM6 12h1v1h1v1h-2zM13 12h2v2h-2zM17 12h1v1h1v1h-3v-1h1zM5 14h1v1h-1zM8 14h1v1h1v2h-1v-1h-2v-1h1zM15 14h1v1h-1zM27 14h1v1h2v1h-1v2h-1v-2h-1zM2 15h3v1h-1v1h-1v-1h-1zM12 15h1v1h-1zM25 15h1v1h-1zM5 16h1v2h-1zM11 16h1v1h-1zM24 16h1v1h-1zM26 16h1v2h-1zM2 17h1v1h2v1h-1v1h-1v-1h-1zM7 17h2v1h-2zM10 17h1v1h-1zM12 17h1v1h2v1h1v1h1v1h1v1h1v1h-1v2h-2v-1h1v-2h-1v2h-1v-1h-1v-1h-1v-1h2v-1h-1v-1h-1v2h-1v2h-1v-3h-1v-1h1v-1h1zM29 18h1v3h-2v-2h1zM1 19h1v1h-1zM5 19h1v1h-1zM7 19h2v3h-2v-1h1v-1h-1zM26 19h1v1h-1zM22 20h1v1h3v5h3v1h-3v1h-1v-1h-4v-4h-1v-2h2zM1 21h1v1h-1zM4 21h1v1h-1zM27 21h1v1h2v1h-1v1h1v1h-3v-1h1v-1h-1zM9 22h1v1h-1zM22 22v3h3v-3zM1 23h7v7h-7zM13 23h1v1h-1zM23 23h1v1h-1zM2 24v5h5v-5zM9 24h1v1h-1zM11 24h2v1h-2zM14 24h1v1h-1zM3 25h3v3h-3zM10 25h1v1h-1zM13 25h1v1h-1zM15 25h1v1h-1zM18 25h1v1h-1zM9 26h1v1h-1zM12 26h1v2h-1v2h-1v-2h-1v-1h2zM14 26h1v1h1v1h-2zM20 27h1v1h-1zM29 27h1v1h-1zM13 28h1v1h-1zM18 28h2v1h-1v1h-1zM21 28h1v2h-1zM23 28h1v1h3v1h-4zM28 28h1v2h-1zM9 29h1v1h-1zM15 29h1v1h-1z"/></svg>