<svg xmlns="http://www.w3.org/2000/svg" viewBox="0 0 31 31"><path d="M1 1h7v7h-7zM12 1h2v1h-1v1h1v1h-2zM16 1h1v3h-1v1h-1v-2h1zM18 1h4v1h-2v2h1v-1h1v2h-2v1h-1v-2h-1v-1h1v-1h-1zM23 1h7v7h-7zM2 2v5h5v-5zM14 2h1v1h-1zM24 2v5h5v-5zM3 3h3v3h-3zM10 3h1v3h-1zM25 3h3v3h-3zM12 5h3v1h-1v2h-1v-1h-1v2h-2v-1h1v-2h1zM16 5h1v2h-1v1h1v1h-1v2h-1v1h1v1h-1v1h-1v-2h-1v1h-1v-2h1v-2h2v-3h1zM9 6h1v2h-1zM18 6h1v1h-1zM20 6h1v1h-1zM17 7h1v1h-1zM19 7h1v2h-2v-1h1zM21 7h1v1h-1zM1 9h1v1h-1zM4 9h1v1h-1zM6 9h2v1h-2zM9 9h1v1h2v1h-2v1h-1v-1h-1v-1h1zM20 9h1v1h-1zM22 9h1v1h1v2h-1v-1h-2v-1h1zM24 9h1v1h-1zM2 10h1v1h-1zM17 10h1v1h-1zM26 10h1v1h2v2h1v1h-2v-1h-1v1h-1v-1h-2v-1h1v-1h1zM29 10h1v1h-1zM1 11h1v3h1v-3h1v4h-3zM7 11h1v1h-1zM18 11h1v1h-1zM20 11h1v2h1v-1h1v1h1v1h-2v1h2v1h-2v1h1v1h2v2h-2v-1h-1v-1h-1v-1h-1v1h-1v2h1v1h-2v-2h-1v-1h1v-1h-2v-1h2v-1h1v1h2v-1h-1v-2h-1v-1h1zM5 12h2v1h1v1h-1v1h2v-1h2v2h-1v1h-1v-1h-2v1h-1v-3h-1zM8 12h1v1h-1zM17 12h1v1h1v1h-3v-1h1zM12 14h2v1h-2zM15 14h1v2h-1zM27 14h1v1h2v1h-1v2h-1v-2h-1zM4 15h1v1h-1zM25 15h1v1h-1zM3 16h1v1h-1zM12 16h3v1h-1v1h1v1h-1v1h-1v1h-1v-1h-3v-2h1v1h1v-1h-1v-1h2v2h1v-2h-1zM24 16h1v1h-1zM26 16h1v2h-1zM2 17h1v1h-1zM4 17h1v1h-1zM7 17h1v1h-1zM3 18h1v2h-1zM6 18h1v1h-1zM29 18h1v3h-2v-2h1zM1 19h1v1h-1zM5 19h1v2h2v1h-4v-1h1zM7 19h1v1h-1zM26 19h1v1h-1zM8 20h1v1h-1zM16 20h1v1h1v1h1v1h-1v2h-2v-1h1v-2h-2v3h-1v-1h-1v-1h1v-1h-1v-1h3zM22 20h1v1h3v5h3v1h-3v1h-1v-1h-4v-4h-1v-2h2zM1 21h1v1h-1zM27 21h1v1h2v1h-1v1h1v1h-3v-1h1v-1h-1zM9 22h1v1h-1zM11 22h1v2h-1v1h2v1h2v1h1v1h-1v1h-1v-1h-1v-1h-1v-1h-2v-1h-1v-1h1v-1h1zM22 22v3h3v-3zM1 23h7v7h-7zM23 23h1v1h-1zM2 24v5h5v-5zM3 25h3v3h-3zM15 25h1v1h-1zM18 25h1v1h-1zM9 26h1v1h-1zM10 27h1v1h-1zM20 27h1v1h-1zM29 27h1v1h-1zM11 28h2v1h-2zM18 28h2v1h-1v1h-1zM21 28h1v2h-1zM23 28h1v1h3v1h-4zM28 28h1v2h-1zM9 29h2v1h-2zM13 29h1v1h-1z"/></svg>