<svg id="Layer_1" data-name="Layer 1" xmlns="http://www.w3.org/2000/svg" viewBox="0 0 265.43 73.2"><defs><style>.cls-1{fill:#aaa095;}</style></defs><title>Irosoft LOGO PRINT</title><path class="cls-1" d="M95.14,94.64v-66a5.19,5.19,0,0,0-4.92-5.43h0a5.19,5.19,0,0,0-4.92,5.43v66Z" transform="translate(-85.31 -22.84)"/><path class="cls-1" d="M108,94.64" transform="translate(-85.31 -22.84)"/><path class="cls-1" d="M165.76,42.67c-14.34,0-26,11.95-26,26.68S151.42,96,165.76,96s26-11.95,26-26.68S180.1,42.67,165.76,42.67Zm0,45.92C157,88.59,150,80,150,69.35S157,50.11,165.76,50.11s15.81,8.61,15.81,19.24S174.49,88.59,165.76,88.59Z" transform="translate(-85.31 -22.84)"/><path class="cls-1" d="M258.33,42.67c-14.34,0-26,11.95-26,26.68S244,96,258.33,96s26-11.95,26-26.68S272.67,42.67,258.33,42.67Zm0,45.92c-8.73,0-15.81-8.61-15.81-19.24s7.08-19.24,15.81-19.24,15.81,8.61,15.81,19.24S267.06,88.59,258.33,88.59Z" transform="translate(-85.31 -22.84)"/><path class="cls-1" d="M316.31,44H303V37.67a6.8,6.8,0,0,1,1.42-4.83c2.06-2.37,6.13-2.06,6.13-2.06V22.84s-8.22-.26-12.82,3.55c-4.86,4-4.57,11.27-4.57,11.27V44h-6.74v7.63h6.74V94.65l9.83-.06v-43h13.35Z" transform="translate(-85.31 -22.84)"/><path class="cls-1" d="M126.72,43.58c-4,1.59-8.75,8.09-8.89,8.29V47.74a4.94,4.94,0,1,0-9.83,0V94.64h9.83V67.49c.81-8,6.27-13.9,10.06-15.9,4.08-2.16,9.47.31,9.47.31V43.34S130.87,41.93,126.72,43.58Z" transform="translate(-85.31 -22.84)"/><path class="cls-1" d="M350.74,51.59V44H336.9V31.76a4.94,4.94,0,1,0-9.83,0V44h-6.26v7.63h6.26v30s-.54,7.15,3.84,10.62C335.72,96,345,95.83,345,95.83V88.27a11.49,11.49,0,0,1-5.56-1.15c-2.53-1.4-2.56-5.52-2.56-5.52v-30Z" transform="translate(-85.31 -22.84)"/><path class="cls-1" d="M223.17,44s-8.46-3-17.12-.11S195.91,53.22,196,58.31s2.93,9.87,13,14.25,9.26,8.36,8.66,10.18a9.18,9.18,0,0,1-10.08,5.6c-6.42-.82-9.15-2.55-9.15-2.55V94a26.83,26.83,0,0,0,13.32,1.64c7.18-1.06,12.75-2.86,15.69-11.71S223.16,69,217.05,66s-11.4-4.68-11.2-9.78,5.28-5.92,7.94-5.91,9.38,1.84,9.38,1.84Z" transform="translate(-85.31 -22.84)"/></svg>