<svg xmlns="http://www.w3.org/2000/svg" viewBox="0 0 35 35"><path d="M1 1h7v7h-7zM11 1h2v1h-1v1h-1zM17 1h1v1h-1zM19 1h6v1h-2v1h1v1h-1v1h1v1h2v2h-1v-1h-1v1h1v1h1v1h-1v1h-1v-1h-1v-1h-2v1h1v2h-1v-1h-1v-2h-1v-2h1v1h1v-1h1v1h1v-1h-1v-1h-1v-1h1v-1h-1v1h-2v-1h1v-1h1v-1h-1v1h-1zM27 1h7v7h-7zM2 2v5h5v-5zM13 2h1v2h-1zM16 2h1v1h1v1h-1v1h1v1h-2v4h-1v1h2v-1h1v-1h1v3h2v1h-3v1h-1v-2h-2v1h-1v-1h-1v1h-2v-1h1v-1h-1v-2h1v-1h1v-1h1v2h-1v1h1v-1h1v-2h-1v-2h2v-1h-1v-1h1zM25 2h1v3h-2v-1h1zM28 2v5h5v-5zM3 3h3v3h-3zM9 3h2v2h-1v1h1v-1h1v3h-1v-1h-1v1h1v1h-2zM29 3h3v3h-3zM18 6h1v1h-1zM20 6h1v1h-1zM17 7h1v2h-1zM1 9h1v1h-1zM3 9h5v1h-1v1h1v1h-1v1h-1v1h-2v-1h1v-2h1v-1h-1v1h-1v1h-2v1h-1v-2h1v-1h1zM27 9h5v2h1v2h1v2h-1v1h-1v1h-2v-3h-1v-3h1v1h1v-1h-1v-1h-2v2h-1zM9 10h1v1h1v1h-2zM33 10h1v1h-1zM23 11h1v1h-1zM24 12h2v1h1v1h-1v1h2v1h-2v1h-1v-4h-1zM7 13h2v1h-2zM10 13h1v2h-2v-1h1zM13 13h1v1h-1zM15 13h1v1h-1zM21 13h3v1h-1v1h-1v-1h-1zM31 13v1h1v-1zM1 14h1v1h-1zM3 14h1v1h1v1h-1v5h-2v-1h1v-1h-1v-3h1zM6 14h1v1h1v1h-2zM12 14h1v1h-1zM16 14h1v1h1v1h-1v2h-1v-2h-1v-1h1zM19 14h1v1h-1zM28 14h1v1h-1zM11 15h1v1h-1zM21 15h1v1h-1zM5 16h1v2h1v1h-1v3h1v1h-1v1h-1v-1h-1v1h-1v-2h2zM8 16h2v2h2v-1h1v2h-5v-1h-1v-1h1zM14 16h1v1h-1zM19 16h1v2h1v-1h1v1h1v2h1v1h-1v1h-1v-1h-1v1h-2v-1h1v-1h1v-1h-1v1h-1v-2h-1v-1h1zM22 16h1v1h-1zM24 17h1v2h-1zM26 17h1v1h-1zM28 17h2v1h-1v1h-2v-1h1zM33 17h1v2h-1zM14 18h1v1h-1zM30 18h2v1h1v3h-1v-1h-1v2h-1v-1h-1v-3h1v1h1v-1h-1zM1 19h1v1h-1zM7 19h1v1h-1zM15 19h3v2h-2v-1h-1zM10 20h3v1h-2v1h-1zM14 20h1v6h-2v-1h1v-1h-1v1h-1v-1h-2v1h-1v1h-2v-1h1v-1h-1v-1h2v-1h1v1h1v-1h1v1h2v-1h-1v-1h1zM25 20h2v1h-2zM7 21h1v1h-1zM24 21h1v1h4v1h-2v2h2v-2h1v1h2v-1h1v1h1v3h-1v1h1v1h-3v-3h2v-1h-2v1h-1v3h1v1h1v3h-1v-2h-2v1h1v2h-2v-1h-1v-2h1v-1h-1v1h-1v-1h-1v-1h-1v-1h-1v-1h2v-1h-2v-1h2v-2h-1v1h-1v-2h1zM1 22h1v4h-1zM16 22h3v2h-1v-1h-2zM21 22h1v1h-1zM33 22h1v1h-1zM20 23h1v1h2v1h-2v1h1v1h-3v1h2v1h-3v1h-1v-2h-1v-1h1v-1h1v-1h1v1h1v-1h-1v-1h1zM6 24h1v1h-1zM17 24h1v1h-1zM3 25h3v1h-3zM11 25h1v1h-1zM9 26h1v1h-1zM12 26h1v1h2v2h-1v-1h-2zM26 26v3h3v-3zM1 27h7v7h-7zM27 27h1v1h-1zM2 28v5h5v-5zM9 28h2v1h-1v2h1v1h1v1h-1v1h-2v-1h1v-1h-1zM3 29h3v3h-3zM11 29h2v1h-2zM21 29h3v1h-3zM15 30h2v1h2v-1h1v2h-3v2h-1v-3h-1zM24 30h1v1h1v1h-1v1h-1v1h-1v-1h-1v-1h-1v-1h2v1h1zM33 30h1v1h-1zM13 31h2v1h-2zM13 33h1v1h-1zM18 33h1v1h-1zM21 33h1v1h-1zM25 33h1v1h-1zM32 33h1v1h-1z"/></svg>